solid Tripod_insert_12_6_telescope_ascii
   facet normal 0.000000e+00 1.000000e+00 -0.000000e+00
      outer loop
         vertex 4.973940e+00 1.900000e+01 8.819078e+00
         vertex 4.507861e+00 1.900000e+01 1.181150e+01
         vertex 5.479056e+00 1.900000e+01 8.954423e+00
      endloop
   endfacet
   facet normal 0.000000e+00 1.000000e+00 0.000000e+00
      outer loop
         vertex 5.479056e+00 1.900000e+01 8.954423e+00
         vertex 4.507861e+00 1.900000e+01 1.181150e+01
         vertex 5.248001e+00 1.900000e+01 1.195269e+01
      endloop
   endfacet
   facet normal 0.000000e+00 1.000000e+00 -0.000000e+00
      outer loop
         vertex 5.479056e+00 1.900000e+01 8.954423e+00
         vertex 5.248001e+00 1.900000e+01 1.195269e+01
         vertex 6.000000e+00 1.900000e+01 9.000000e+00
      endloop
   endfacet
   facet normal 0.000000e+00 1.000000e+00 0.000000e+00
      outer loop
         vertex 6.000000e+00 1.900000e+01 9.000000e+00
         vertex 5.248001e+00 1.900000e+01 1.195269e+01
         vertex 6.000000e+00 1.900000e+01 1.200000e+01
      endloop
   endfacet
   facet normal -0.000000e+00 1.000000e+00 -0.000000e+00
      outer loop
         vertex 6.000000e+00 1.900000e+01 9.000000e+00
         vertex 6.000000e+00 1.900000e+01 1.200000e+01
         vertex 6.520945e+00 1.900000e+01 8.954423e+00
      endloop
   endfacet
   facet normal 0.000000e+00 1.000000e+00 0.000000e+00
      outer loop
         vertex 4.500000e+00 1.900000e+01 3.401924e+00
         vertex 2.473288e+00 1.900000e+01 1.145898e+00
         vertex 4.071637e+00 1.900000e+01 3.701867e+00
      endloop
   endfacet
   facet normal 0.000000e+00 1.000000e+00 0.000000e+00
      outer loop
         vertex 4.071637e+00 1.900000e+01 3.701867e+00
         vertex 2.473288e+00 1.900000e+01 1.145898e+00
         vertex 1.892718e+00 1.900000e+01 1.626188e+00
      endloop
   endfacet
   facet normal 0.000000e+00 1.000000e+00 0.000000e+00
      outer loop
         vertex 4.071637e+00 1.900000e+01 3.701867e+00
         vertex 1.892718e+00 1.900000e+01 1.626188e+00
         vertex 3.701867e+00 1.900000e+01 4.071637e+00
      endloop
   endfacet
   facet normal 0.000000e+00 1.000000e+00 0.000000e+00
      outer loop
         vertex 3.701867e+00 1.900000e+01 4.071637e+00
         vertex 1.892718e+00 1.900000e+01 1.626188e+00
         vertex 1.376920e+00 1.900000e+01 2.175456e+00
      endloop
   endfacet
   facet normal 0.000000e+00 1.000000e+00 0.000000e+00
      outer loop
         vertex 3.701867e+00 1.900000e+01 4.071637e+00
         vertex 1.376920e+00 1.900000e+01 2.175456e+00
         vertex 3.401924e+00 1.900000e+01 4.500000e+00
      endloop
   endfacet
   facet normal 0.000000e+00 1.000000e+00 -0.000000e+00
      outer loop
         vertex 4.071637e+00 1.900000e+01 8.298133e+00
         vertex 2.473288e+00 1.900000e+01 1.085410e+01
         vertex 4.500000e+00 1.900000e+01 8.598076e+00
      endloop
   endfacet
   facet normal 0.000000e+00 1.000000e+00 0.000000e+00
      outer loop
         vertex 4.500000e+00 1.900000e+01 8.598076e+00
         vertex 2.473288e+00 1.900000e+01 1.085410e+01
         vertex 3.109478e+00 1.900000e+01 1.125784e+01
      endloop
   endfacet
   facet normal 0.000000e+00 1.000000e+00 -0.000000e+00
      outer loop
         vertex 4.500000e+00 1.900000e+01 8.598076e+00
         vertex 3.109478e+00 1.900000e+01 1.125784e+01
         vertex 4.973940e+00 1.900000e+01 8.819078e+00
      endloop
   endfacet
   facet normal 0.000000e+00 1.000000e+00 0.000000e+00
      outer loop
         vertex 4.973940e+00 1.900000e+01 8.819078e+00
         vertex 3.109478e+00 1.900000e+01 1.125784e+01
         vertex 3.791253e+00 1.900000e+01 1.157866e+01
      endloop
   endfacet
   facet normal 0.000000e+00 1.000000e+00 0.000000e+00
      outer loop
         vertex 4.973940e+00 1.900000e+01 8.819078e+00
         vertex 3.791253e+00 1.900000e+01 1.157866e+01
         vertex 4.507861e+00 1.900000e+01 1.181150e+01
      endloop
   endfacet
   facet normal 0.000000e+00 1.000000e+00 -0.000000e+00
      outer loop
         vertex 3.180922e+00 1.900000e+01 7.026060e+00
         vertex 5.710376e-01 1.900000e+01 8.554676e+00
         vertex 3.401924e+00 1.900000e+01 7.500000e+00
      endloop
   endfacet
   facet normal 0.000000e+00 1.000000e+00 0.000000e+00
      outer loop
         vertex 3.401924e+00 1.900000e+01 7.500000e+00
         vertex 5.710376e-01 1.900000e+01 8.554676e+00
         vertex 9.340327e-01 1.900000e+01 9.214961e+00
      endloop
   endfacet
   facet normal 0.000000e+00 1.000000e+00 -0.000000e+00
      outer loop
         vertex 3.401924e+00 1.900000e+01 7.500000e+00
         vertex 9.340327e-01 1.900000e+01 9.214961e+00
         vertex 3.701867e+00 1.900000e+01 7.928363e+00
      endloop
   endfacet
   facet normal 0.000000e+00 1.000000e+00 0.000000e+00
      outer loop
         vertex 3.701867e+00 1.900000e+01 7.928363e+00
         vertex 9.340327e-01 1.900000e+01 9.214961e+00
         vertex 1.376920e+00 1.900000e+01 9.824544e+00
      endloop
   endfacet
   facet normal 0.000000e+00 1.000000e+00 -0.000000e+00
      outer loop
         vertex 3.701867e+00 1.900000e+01 7.928363e+00
         vertex 1.376920e+00 1.900000e+01 9.824544e+00
         vertex 4.071637e+00 1.900000e+01 8.298133e+00
      endloop
   endfacet
   facet normal 0.000000e+00 1.000000e+00 0.000000e+00
      outer loop
         vertex 4.071637e+00 1.900000e+01 8.298133e+00
         vertex 1.376920e+00 1.900000e+01 9.824544e+00
         vertex 1.892718e+00 1.900000e+01 1.037381e+01
      endloop
   endfacet
   facet normal 0.000000e+00 1.000000e+00 0.000000e+00
      outer loop
         vertex 4.071637e+00 1.900000e+01 8.298133e+00
         vertex 1.892718e+00 1.900000e+01 1.037381e+01
         vertex 2.473288e+00 1.900000e+01 1.085410e+01
      endloop
   endfacet
   facet normal 0.000000e+00 1.000000e+00 0.000000e+00
      outer loop
         vertex 3.045577e+00 1.900000e+01 5.479056e+00
         vertex 1.183990e-02 1.900000e+01 5.623257e+00
         vertex 3.000000e+00 1.900000e+01 6.000000e+00
      endloop
   endfacet
   facet normal 0.000000e+00 1.000000e+00 0.000000e+00
      outer loop
         vertex 3.000000e+00 1.900000e+01 6.000000e+00
         vertex 1.183990e-02 1.900000e+01 5.623257e+00
         vertex 1.183990e-02 1.900000e+01 6.376743e+00
      endloop
   endfacet
   facet normal 0.000000e+00 1.000000e+00 -0.000000e+00
      outer loop
         vertex 3.000000e+00 1.900000e+01 6.000000e+00
         vertex 1.183990e-02 1.900000e+01 6.376743e+00
         vertex 3.045577e+00 1.900000e+01 6.520945e+00
      endloop
   endfacet
   facet normal 0.000000e+00 1.000000e+00 0.000000e+00
      outer loop
         vertex 3.045577e+00 1.900000e+01 6.520945e+00
         vertex 1.183990e-02 1.900000e+01 6.376743e+00
         vertex 1.062765e-01 1.900000e+01 7.124288e+00
      endloop
   endfacet
   facet normal 0.000000e+00 1.000000e+00 -0.000000e+00
      outer loop
         vertex 3.045577e+00 1.900000e+01 6.520945e+00
         vertex 1.062765e-01 1.900000e+01 7.124288e+00
         vertex 3.180922e+00 1.900000e+01 7.026060e+00
      endloop
   endfacet
   facet normal 0.000000e+00 1.000000e+00 0.000000e+00
      outer loop
         vertex 3.180922e+00 1.900000e+01 7.026060e+00
         vertex 1.062765e-01 1.900000e+01 7.124288e+00
         vertex 2.936609e-01 1.900000e+01 7.854102e+00
      endloop
   endfacet
   facet normal 0.000000e+00 1.000000e+00 0.000000e+00
      outer loop
         vertex 3.180922e+00 1.900000e+01 7.026060e+00
         vertex 2.936609e-01 1.900000e+01 7.854102e+00
         vertex 5.710376e-01 1.900000e+01 8.554676e+00
      endloop
   endfacet
   facet normal 0.000000e+00 1.000000e+00 0.000000e+00
      outer loop
         vertex 5.479056e+00 1.900000e+01 3.045577e+00
         vertex 4.507861e+00 1.900000e+01 1.885011e-01
         vertex 4.973940e+00 1.900000e+01 3.180922e+00
      endloop
   endfacet
   facet normal 0.000000e+00 1.000000e+00 0.000000e+00
      outer loop
         vertex 4.973940e+00 1.900000e+01 3.180922e+00
         vertex 4.507861e+00 1.900000e+01 1.885011e-01
         vertex 3.791253e+00 1.900000e+01 4.213410e-01
      endloop
   endfacet
   facet normal 0.000000e+00 1.000000e+00 0.000000e+00
      outer loop
         vertex 4.973940e+00 1.900000e+01 3.180922e+00
         vertex 3.791253e+00 1.900000e+01 4.213410e-01
         vertex 4.500000e+00 1.900000e+01 3.401924e+00
      endloop
   endfacet
   facet normal 0.000000e+00 1.000000e+00 0.000000e+00
      outer loop
         vertex 4.500000e+00 1.900000e+01 3.401924e+00
         vertex 3.791253e+00 1.900000e+01 4.213410e-01
         vertex 3.109478e+00 1.900000e+01 7.421598e-01
      endloop
   endfacet
   facet normal 0.000000e+00 1.000000e+00 0.000000e+00
      outer loop
         vertex 4.500000e+00 1.900000e+01 3.401924e+00
         vertex 3.109478e+00 1.900000e+01 7.421598e-01
         vertex 2.473288e+00 1.900000e+01 1.145898e+00
      endloop
   endfacet
   facet normal 0.000000e+00 1.000000e+00 0.000000e+00
      outer loop
         vertex 7.026060e+00 1.900000e+01 3.180922e+00
         vertex 7.492139e+00 1.900000e+01 1.885011e-01
         vertex 6.520945e+00 1.900000e+01 3.045577e+00
      endloop
   endfacet
   facet normal 0.000000e+00 1.000000e+00 0.000000e+00
      outer loop
         vertex 6.520945e+00 1.900000e+01 3.045577e+00
         vertex 7.492139e+00 1.900000e+01 1.885011e-01
         vertex 6.751999e+00 1.900000e+01 4.731165e-02
      endloop
   endfacet
   facet normal 0.000000e+00 1.000000e+00 0.000000e+00
      outer loop
         vertex 6.520945e+00 1.900000e+01 3.045577e+00
         vertex 6.751999e+00 1.900000e+01 4.731165e-02
         vertex 6.000000e+00 1.900000e+01 3.000000e+00
      endloop
   endfacet
   facet normal 0.000000e+00 1.000000e+00 0.000000e+00
      outer loop
         vertex 6.000000e+00 1.900000e+01 3.000000e+00
         vertex 6.751999e+00 1.900000e+01 4.731165e-02
         vertex 6.000000e+00 1.900000e+01 0.000000e+00
      endloop
   endfacet
   facet normal 0.000000e+00 1.000000e+00 0.000000e+00
      outer loop
         vertex 6.000000e+00 1.900000e+01 3.000000e+00
         vertex 6.000000e+00 1.900000e+01 0.000000e+00
         vertex 5.479056e+00 1.900000e+01 3.045577e+00
      endloop
   endfacet
   facet normal 0.000000e+00 1.000000e+00 0.000000e+00
      outer loop
         vertex 5.479056e+00 1.900000e+01 3.045577e+00
         vertex 6.000000e+00 1.900000e+01 0.000000e+00
         vertex 5.248001e+00 1.900000e+01 4.731165e-02
      endloop
   endfacet
   facet normal 0.000000e+00 1.000000e+00 0.000000e+00
      outer loop
         vertex 5.479056e+00 1.900000e+01 3.045577e+00
         vertex 5.248001e+00 1.900000e+01 4.731165e-02
         vertex 4.507861e+00 1.900000e+01 1.885011e-01
      endloop
   endfacet
   facet normal 0.000000e+00 1.000000e+00 -0.000000e+00
      outer loop
         vertex 1.376920e+00 1.900000e+01 2.175456e+00
         vertex 9.340327e-01 1.900000e+01 2.785039e+00
         vertex 3.401924e+00 1.900000e+01 4.500000e+00
      endloop
   endfacet
   facet normal 0.000000e+00 1.000000e+00 0.000000e+00
      outer loop
         vertex 3.401924e+00 1.900000e+01 4.500000e+00
         vertex 9.340327e-01 1.900000e+01 2.785039e+00
         vertex 5.710376e-01 1.900000e+01 3.445324e+00
      endloop
   endfacet
   facet normal 0.000000e+00 1.000000e+00 0.000000e+00
      outer loop
         vertex 3.401924e+00 1.900000e+01 4.500000e+00
         vertex 5.710376e-01 1.900000e+01 3.445324e+00
         vertex 3.180922e+00 1.900000e+01 4.973940e+00
      endloop
   endfacet
   facet normal 0.000000e+00 1.000000e+00 0.000000e+00
      outer loop
         vertex 3.180922e+00 1.900000e+01 4.973940e+00
         vertex 5.710376e-01 1.900000e+01 3.445324e+00
         vertex 2.936609e-01 1.900000e+01 4.145898e+00
      endloop
   endfacet
   facet normal 0.000000e+00 1.000000e+00 0.000000e+00
      outer loop
         vertex 3.180922e+00 1.900000e+01 4.973940e+00
         vertex 2.936609e-01 1.900000e+01 4.145898e+00
         vertex 3.045577e+00 1.900000e+01 5.479056e+00
      endloop
   endfacet
   facet normal 0.000000e+00 1.000000e+00 0.000000e+00
      outer loop
         vertex 3.045577e+00 1.900000e+01 5.479056e+00
         vertex 2.936609e-01 1.900000e+01 4.145898e+00
         vertex 1.062765e-01 1.900000e+01 4.875712e+00
      endloop
   endfacet
   facet normal 0.000000e+00 1.000000e+00 0.000000e+00
      outer loop
         vertex 3.045577e+00 1.900000e+01 5.479056e+00
         vertex 1.062765e-01 1.900000e+01 4.875712e+00
         vertex 1.183990e-02 1.900000e+01 5.623257e+00
      endloop
   endfacet
   facet normal 0.000000e+00 1.000000e+00 0.000000e+00
      outer loop
         vertex 7.928363e+00 1.900000e+01 3.701867e+00
         vertex 9.526712e+00 1.900000e+01 1.145898e+00
         vertex 7.500000e+00 1.900000e+01 3.401924e+00
      endloop
   endfacet
   facet normal 0.000000e+00 1.000000e+00 0.000000e+00
      outer loop
         vertex 7.500000e+00 1.900000e+01 3.401924e+00
         vertex 9.526712e+00 1.900000e+01 1.145898e+00
         vertex 8.890522e+00 1.900000e+01 7.421598e-01
      endloop
   endfacet
   facet normal 0.000000e+00 1.000000e+00 0.000000e+00
      outer loop
         vertex 7.500000e+00 1.900000e+01 3.401924e+00
         vertex 8.890522e+00 1.900000e+01 7.421598e-01
         vertex 7.026060e+00 1.900000e+01 3.180922e+00
      endloop
   endfacet
   facet normal 0.000000e+00 1.000000e+00 0.000000e+00
      outer loop
         vertex 7.026060e+00 1.900000e+01 3.180922e+00
         vertex 8.890522e+00 1.900000e+01 7.421598e-01
         vertex 8.208747e+00 1.900000e+01 4.213410e-01
      endloop
   endfacet
   facet normal 0.000000e+00 1.000000e+00 0.000000e+00
      outer loop
         vertex 7.026060e+00 1.900000e+01 3.180922e+00
         vertex 8.208747e+00 1.900000e+01 4.213410e-01
         vertex 7.492139e+00 1.900000e+01 1.885011e-01
      endloop
   endfacet
   facet normal 0.000000e+00 1.000000e+00 0.000000e+00
      outer loop
         vertex 8.819078e+00 1.900000e+01 4.973940e+00
         vertex 1.142896e+01 1.900000e+01 3.445324e+00
         vertex 8.598076e+00 1.900000e+01 4.500000e+00
      endloop
   endfacet
   facet normal 0.000000e+00 1.000000e+00 0.000000e+00
      outer loop
         vertex 8.598076e+00 1.900000e+01 4.500000e+00
         vertex 1.142896e+01 1.900000e+01 3.445324e+00
         vertex 1.106597e+01 1.900000e+01 2.785039e+00
      endloop
   endfacet
   facet normal 0.000000e+00 1.000000e+00 0.000000e+00
      outer loop
         vertex 8.598076e+00 1.900000e+01 4.500000e+00
         vertex 1.106597e+01 1.900000e+01 2.785039e+00
         vertex 8.298133e+00 1.900000e+01 4.071637e+00
      endloop
   endfacet
   facet normal 0.000000e+00 1.000000e+00 0.000000e+00
      outer loop
         vertex 8.298133e+00 1.900000e+01 4.071637e+00
         vertex 1.106597e+01 1.900000e+01 2.785039e+00
         vertex 1.062308e+01 1.900000e+01 2.175456e+00
      endloop
   endfacet
   facet normal 0.000000e+00 1.000000e+00 0.000000e+00
      outer loop
         vertex 8.298133e+00 1.900000e+01 4.071637e+00
         vertex 1.062308e+01 1.900000e+01 2.175456e+00
         vertex 7.928363e+00 1.900000e+01 3.701867e+00
      endloop
   endfacet
   facet normal 0.000000e+00 1.000000e+00 0.000000e+00
      outer loop
         vertex 7.928363e+00 1.900000e+01 3.701867e+00
         vertex 1.062308e+01 1.900000e+01 2.175456e+00
         vertex 1.010728e+01 1.900000e+01 1.626188e+00
      endloop
   endfacet
   facet normal 0.000000e+00 1.000000e+00 0.000000e+00
      outer loop
         vertex 7.928363e+00 1.900000e+01 3.701867e+00
         vertex 1.010728e+01 1.900000e+01 1.626188e+00
         vertex 9.526712e+00 1.900000e+01 1.145898e+00
      endloop
   endfacet
   facet normal 0.000000e+00 1.000000e+00 0.000000e+00
      outer loop
         vertex 8.954423e+00 1.900000e+01 6.520945e+00
         vertex 1.198816e+01 1.900000e+01 6.376743e+00
         vertex 9.000000e+00 1.900000e+01 6.000000e+00
      endloop
   endfacet
   facet normal -0.000000e+00 1.000000e+00 0.000000e+00
      outer loop
         vertex 9.000000e+00 1.900000e+01 6.000000e+00
         vertex 1.198816e+01 1.900000e+01 6.376743e+00
         vertex 1.198816e+01 1.900000e+01 5.623257e+00
      endloop
   endfacet
   facet normal 0.000000e+00 1.000000e+00 0.000000e+00
      outer loop
         vertex 9.000000e+00 1.900000e+01 6.000000e+00
         vertex 1.198816e+01 1.900000e+01 5.623257e+00
         vertex 8.954423e+00 1.900000e+01 5.479056e+00
      endloop
   endfacet
   facet normal -0.000000e+00 1.000000e+00 0.000000e+00
      outer loop
         vertex 8.954423e+00 1.900000e+01 5.479056e+00
         vertex 1.198816e+01 1.900000e+01 5.623257e+00
         vertex 1.189372e+01 1.900000e+01 4.875712e+00
      endloop
   endfacet
   facet normal 0.000000e+00 1.000000e+00 0.000000e+00
      outer loop
         vertex 8.954423e+00 1.900000e+01 5.479056e+00
         vertex 1.189372e+01 1.900000e+01 4.875712e+00
         vertex 8.819078e+00 1.900000e+01 4.973940e+00
      endloop
   endfacet
   facet normal 0.000000e+00 1.000000e+00 0.000000e+00
      outer loop
         vertex 8.819078e+00 1.900000e+01 4.973940e+00
         vertex 1.189372e+01 1.900000e+01 4.875712e+00
         vertex 1.170634e+01 1.900000e+01 4.145898e+00
      endloop
   endfacet
   facet normal 0.000000e+00 1.000000e+00 0.000000e+00
      outer loop
         vertex 8.819078e+00 1.900000e+01 4.973940e+00
         vertex 1.170634e+01 1.900000e+01 4.145898e+00
         vertex 1.142896e+01 1.900000e+01 3.445324e+00
      endloop
   endfacet
   facet normal -0.000000e+00 1.000000e+00 0.000000e+00
      outer loop
         vertex 8.598076e+00 1.900000e+01 7.500000e+00
         vertex 1.142896e+01 1.900000e+01 8.554676e+00
         vertex 8.819078e+00 1.900000e+01 7.026060e+00
      endloop
   endfacet
   facet normal 0.000000e+00 1.000000e+00 0.000000e+00
      outer loop
         vertex 8.819078e+00 1.900000e+01 7.026060e+00
         vertex 1.142896e+01 1.900000e+01 8.554676e+00
         vertex 1.170634e+01 1.900000e+01 7.854102e+00
      endloop
   endfacet
   facet normal -0.000000e+00 1.000000e+00 0.000000e+00
      outer loop
         vertex 8.819078e+00 1.900000e+01 7.026060e+00
         vertex 1.170634e+01 1.900000e+01 7.854102e+00
         vertex 8.954423e+00 1.900000e+01 6.520945e+00
      endloop
   endfacet
   facet normal 0.000000e+00 1.000000e+00 0.000000e+00
      outer loop
         vertex 8.954423e+00 1.900000e+01 6.520945e+00
         vertex 1.170634e+01 1.900000e+01 7.854102e+00
         vertex 1.189372e+01 1.900000e+01 7.124288e+00
      endloop
   endfacet
   facet normal -0.000000e+00 1.000000e+00 0.000000e+00
      outer loop
         vertex 8.954423e+00 1.900000e+01 6.520945e+00
         vertex 1.189372e+01 1.900000e+01 7.124288e+00
         vertex 1.198816e+01 1.900000e+01 6.376743e+00
      endloop
   endfacet
   facet normal -0.000000e+00 1.000000e+00 0.000000e+00
      outer loop
         vertex 7.500000e+00 1.900000e+01 8.598076e+00
         vertex 9.526712e+00 1.900000e+01 1.085410e+01
         vertex 7.928363e+00 1.900000e+01 8.298133e+00
      endloop
   endfacet
   facet normal 0.000000e+00 1.000000e+00 0.000000e+00
      outer loop
         vertex 7.928363e+00 1.900000e+01 8.298133e+00
         vertex 9.526712e+00 1.900000e+01 1.085410e+01
         vertex 1.010728e+01 1.900000e+01 1.037381e+01
      endloop
   endfacet
   facet normal -0.000000e+00 1.000000e+00 0.000000e+00
      outer loop
         vertex 7.928363e+00 1.900000e+01 8.298133e+00
         vertex 1.010728e+01 1.900000e+01 1.037381e+01
         vertex 8.298133e+00 1.900000e+01 7.928363e+00
      endloop
   endfacet
   facet normal 0.000000e+00 1.000000e+00 0.000000e+00
      outer loop
         vertex 8.298133e+00 1.900000e+01 7.928363e+00
         vertex 1.010728e+01 1.900000e+01 1.037381e+01
         vertex 1.062308e+01 1.900000e+01 9.824544e+00
      endloop
   endfacet
   facet normal -0.000000e+00 1.000000e+00 0.000000e+00
      outer loop
         vertex 8.298133e+00 1.900000e+01 7.928363e+00
         vertex 1.062308e+01 1.900000e+01 9.824544e+00
         vertex 8.598076e+00 1.900000e+01 7.500000e+00
      endloop
   endfacet
   facet normal 0.000000e+00 1.000000e+00 0.000000e+00
      outer loop
         vertex 8.598076e+00 1.900000e+01 7.500000e+00
         vertex 1.062308e+01 1.900000e+01 9.824544e+00
         vertex 1.106597e+01 1.900000e+01 9.214961e+00
      endloop
   endfacet
   facet normal 0.000000e+00 1.000000e+00 0.000000e+00
      outer loop
         vertex 8.598076e+00 1.900000e+01 7.500000e+00
         vertex 1.106597e+01 1.900000e+01 9.214961e+00
         vertex 1.142896e+01 1.900000e+01 8.554676e+00
      endloop
   endfacet
   facet normal 0.000000e+00 1.000000e+00 0.000000e+00
      outer loop
         vertex 6.000000e+00 1.900000e+01 1.200000e+01
         vertex 6.751999e+00 1.900000e+01 1.195269e+01
         vertex 6.520945e+00 1.900000e+01 8.954423e+00
      endloop
   endfacet
   facet normal 0.000000e+00 1.000000e+00 0.000000e+00
      outer loop
         vertex 6.520945e+00 1.900000e+01 8.954423e+00
         vertex 6.751999e+00 1.900000e+01 1.195269e+01
         vertex 7.492139e+00 1.900000e+01 1.181150e+01
      endloop
   endfacet
   facet normal -0.000000e+00 1.000000e+00 0.000000e+00
      outer loop
         vertex 6.520945e+00 1.900000e+01 8.954423e+00
         vertex 7.492139e+00 1.900000e+01 1.181150e+01
         vertex 7.026060e+00 1.900000e+01 8.819078e+00
      endloop
   endfacet
   facet normal 0.000000e+00 1.000000e+00 0.000000e+00
      outer loop
         vertex 7.026060e+00 1.900000e+01 8.819078e+00
         vertex 7.492139e+00 1.900000e+01 1.181150e+01
         vertex 8.208747e+00 1.900000e+01 1.157866e+01
      endloop
   endfacet
   facet normal -0.000000e+00 1.000000e+00 0.000000e+00
      outer loop
         vertex 7.026060e+00 1.900000e+01 8.819078e+00
         vertex 8.208747e+00 1.900000e+01 1.157866e+01
         vertex 7.500000e+00 1.900000e+01 8.598076e+00
      endloop
   endfacet
   facet normal 0.000000e+00 1.000000e+00 0.000000e+00
      outer loop
         vertex 7.500000e+00 1.900000e+01 8.598076e+00
         vertex 8.208747e+00 1.900000e+01 1.157866e+01
         vertex 8.890522e+00 1.900000e+01 1.125784e+01
      endloop
   endfacet
   facet normal 0.000000e+00 1.000000e+00 0.000000e+00
      outer loop
         vertex 7.500000e+00 1.900000e+01 8.598076e+00
         vertex 8.890522e+00 1.900000e+01 1.125784e+01
         vertex 9.526712e+00 1.900000e+01 1.085410e+01
      endloop
   endfacet
   facet normal 0.000000e+00 -1.000000e+00 -0.000000e+00
      outer loop
         vertex 4.973940e+00 0.000000e+00 3.180922e+00
         vertex 4.507861e+00 0.000000e+00 1.885011e-01
         vertex 5.479056e+00 0.000000e+00 3.045577e+00
      endloop
   endfacet
   facet normal 0.000000e+00 -1.000000e+00 0.000000e+00
      outer loop
         vertex 5.479056e+00 0.000000e+00 3.045577e+00
         vertex 4.507861e+00 0.000000e+00 1.885011e-01
         vertex 5.248001e+00 0.000000e+00 4.731165e-02
      endloop
   endfacet
   facet normal 0.000000e+00 -1.000000e+00 -0.000000e+00
      outer loop
         vertex 5.479056e+00 0.000000e+00 3.045577e+00
         vertex 5.248001e+00 0.000000e+00 4.731165e-02
         vertex 6.000000e+00 0.000000e+00 3.000000e+00
      endloop
   endfacet
   facet normal 0.000000e+00 -1.000000e+00 -0.000000e+00
      outer loop
         vertex 6.000000e+00 0.000000e+00 3.000000e+00
         vertex 5.248001e+00 0.000000e+00 4.731165e-02
         vertex 6.000000e+00 0.000000e+00 0.000000e+00
      endloop
   endfacet
   facet normal 0.000000e+00 -1.000000e+00 0.000000e+00
      outer loop
         vertex 6.000000e+00 0.000000e+00 3.000000e+00
         vertex 6.000000e+00 0.000000e+00 0.000000e+00
         vertex 6.520945e+00 0.000000e+00 3.045577e+00
      endloop
   endfacet
   facet normal 0.000000e+00 -1.000000e+00 -0.000000e+00
      outer loop
         vertex 4.071637e+00 0.000000e+00 3.701867e+00
         vertex 2.473288e+00 0.000000e+00 1.145898e+00
         vertex 4.500000e+00 0.000000e+00 3.401924e+00
      endloop
   endfacet
   facet normal 0.000000e+00 -1.000000e+00 0.000000e+00
      outer loop
         vertex 4.500000e+00 0.000000e+00 3.401924e+00
         vertex 2.473288e+00 0.000000e+00 1.145898e+00
         vertex 3.109478e+00 0.000000e+00 7.421598e-01
      endloop
   endfacet
   facet normal 0.000000e+00 -1.000000e+00 -0.000000e+00
      outer loop
         vertex 4.500000e+00 0.000000e+00 3.401924e+00
         vertex 3.109478e+00 0.000000e+00 7.421598e-01
         vertex 4.973940e+00 0.000000e+00 3.180922e+00
      endloop
   endfacet
   facet normal 0.000000e+00 -1.000000e+00 0.000000e+00
      outer loop
         vertex 4.973940e+00 0.000000e+00 3.180922e+00
         vertex 3.109478e+00 0.000000e+00 7.421598e-01
         vertex 3.791253e+00 0.000000e+00 4.213410e-01
      endloop
   endfacet
   facet normal 0.000000e+00 -1.000000e+00 0.000000e+00
      outer loop
         vertex 4.973940e+00 0.000000e+00 3.180922e+00
         vertex 3.791253e+00 0.000000e+00 4.213410e-01
         vertex 4.507861e+00 0.000000e+00 1.885011e-01
      endloop
   endfacet
   facet normal 0.000000e+00 -1.000000e+00 -0.000000e+00
      outer loop
         vertex 3.180922e+00 0.000000e+00 4.973940e+00
         vertex 5.710376e-01 0.000000e+00 3.445324e+00
         vertex 3.401924e+00 0.000000e+00 4.500000e+00
      endloop
   endfacet
   facet normal 0.000000e+00 -1.000000e+00 0.000000e+00
      outer loop
         vertex 3.401924e+00 0.000000e+00 4.500000e+00
         vertex 5.710376e-01 0.000000e+00 3.445324e+00
         vertex 9.340327e-01 0.000000e+00 2.785039e+00
      endloop
   endfacet
   facet normal 0.000000e+00 -1.000000e+00 -0.000000e+00
      outer loop
         vertex 3.401924e+00 0.000000e+00 4.500000e+00
         vertex 9.340327e-01 0.000000e+00 2.785039e+00
         vertex 3.701867e+00 0.000000e+00 4.071637e+00
      endloop
   endfacet
   facet normal 0.000000e+00 -1.000000e+00 0.000000e+00
      outer loop
         vertex 3.701867e+00 0.000000e+00 4.071637e+00
         vertex 9.340327e-01 0.000000e+00 2.785039e+00
         vertex 1.376920e+00 0.000000e+00 2.175456e+00
      endloop
   endfacet
   facet normal 0.000000e+00 -1.000000e+00 -0.000000e+00
      outer loop
         vertex 3.701867e+00 0.000000e+00 4.071637e+00
         vertex 1.376920e+00 0.000000e+00 2.175456e+00
         vertex 4.071637e+00 0.000000e+00 3.701867e+00
      endloop
   endfacet
   facet normal 0.000000e+00 -1.000000e+00 0.000000e+00
      outer loop
         vertex 4.071637e+00 0.000000e+00 3.701867e+00
         vertex 1.376920e+00 0.000000e+00 2.175456e+00
         vertex 1.892718e+00 0.000000e+00 1.626188e+00
      endloop
   endfacet
   facet normal 0.000000e+00 -1.000000e+00 0.000000e+00
      outer loop
         vertex 4.071637e+00 0.000000e+00 3.701867e+00
         vertex 1.892718e+00 0.000000e+00 1.626188e+00
         vertex 2.473288e+00 0.000000e+00 1.145898e+00
      endloop
   endfacet
   facet normal 0.000000e+00 -1.000000e+00 -0.000000e+00
      outer loop
         vertex 3.000000e+00 0.000000e+00 6.000000e+00
         vertex 1.183990e-02 0.000000e+00 5.623257e+00
         vertex 3.045577e+00 0.000000e+00 5.479056e+00
      endloop
   endfacet
   facet normal -0.000000e+00 -1.000000e+00 0.000000e+00
      outer loop
         vertex 3.045577e+00 0.000000e+00 5.479056e+00
         vertex 1.183990e-02 0.000000e+00 5.623257e+00
         vertex 1.062765e-01 0.000000e+00 4.875712e+00
      endloop
   endfacet
   facet normal 0.000000e+00 -1.000000e+00 -0.000000e+00
      outer loop
         vertex 3.045577e+00 0.000000e+00 5.479056e+00
         vertex 1.062765e-01 0.000000e+00 4.875712e+00
         vertex 3.180922e+00 0.000000e+00 4.973940e+00
      endloop
   endfacet
   facet normal 0.000000e+00 -1.000000e+00 0.000000e+00
      outer loop
         vertex 3.180922e+00 0.000000e+00 4.973940e+00
         vertex 1.062765e-01 0.000000e+00 4.875712e+00
         vertex 2.936609e-01 0.000000e+00 4.145898e+00
      endloop
   endfacet
   facet normal 0.000000e+00 -1.000000e+00 0.000000e+00
      outer loop
         vertex 3.180922e+00 0.000000e+00 4.973940e+00
         vertex 2.936609e-01 0.000000e+00 4.145898e+00
         vertex 5.710376e-01 0.000000e+00 3.445324e+00
      endloop
   endfacet
   facet normal -0.000000e+00 -1.000000e+00 0.000000e+00
      outer loop
         vertex 3.401924e+00 0.000000e+00 7.500000e+00
         vertex 5.710376e-01 0.000000e+00 8.554676e+00
         vertex 3.180922e+00 0.000000e+00 7.026060e+00
      endloop
   endfacet
   facet normal 0.000000e+00 -1.000000e+00 0.000000e+00
      outer loop
         vertex 3.180922e+00 0.000000e+00 7.026060e+00
         vertex 5.710376e-01 0.000000e+00 8.554676e+00
         vertex 2.936609e-01 0.000000e+00 7.854102e+00
      endloop
   endfacet
   facet normal -0.000000e+00 -1.000000e+00 0.000000e+00
      outer loop
         vertex 3.180922e+00 0.000000e+00 7.026060e+00
         vertex 2.936609e-01 0.000000e+00 7.854102e+00
         vertex 3.045577e+00 0.000000e+00 6.520945e+00
      endloop
   endfacet
   facet normal 0.000000e+00 -1.000000e+00 0.000000e+00
      outer loop
         vertex 3.045577e+00 0.000000e+00 6.520945e+00
         vertex 2.936609e-01 0.000000e+00 7.854102e+00
         vertex 1.062765e-01 0.000000e+00 7.124288e+00
      endloop
   endfacet
   facet normal -0.000000e+00 -1.000000e+00 0.000000e+00
      outer loop
         vertex 3.045577e+00 0.000000e+00 6.520945e+00
         vertex 1.062765e-01 0.000000e+00 7.124288e+00
         vertex 3.000000e+00 0.000000e+00 6.000000e+00
      endloop
   endfacet
   facet normal 0.000000e+00 -1.000000e+00 0.000000e+00
      outer loop
         vertex 3.000000e+00 0.000000e+00 6.000000e+00
         vertex 1.062765e-01 0.000000e+00 7.124288e+00
         vertex 1.183990e-02 0.000000e+00 6.376743e+00
      endloop
   endfacet
   facet normal -0.000000e+00 -1.000000e+00 0.000000e+00
      outer loop
         vertex 3.000000e+00 0.000000e+00 6.000000e+00
         vertex 1.183990e-02 0.000000e+00 6.376743e+00
         vertex 1.183990e-02 0.000000e+00 5.623257e+00
      endloop
   endfacet
   facet normal -0.000000e+00 -1.000000e+00 0.000000e+00
      outer loop
         vertex 4.500000e+00 0.000000e+00 8.598076e+00
         vertex 2.473288e+00 0.000000e+00 1.085410e+01
         vertex 4.071637e+00 0.000000e+00 8.298133e+00
      endloop
   endfacet
   facet normal 0.000000e+00 -1.000000e+00 0.000000e+00
      outer loop
         vertex 4.071637e+00 0.000000e+00 8.298133e+00
         vertex 2.473288e+00 0.000000e+00 1.085410e+01
         vertex 1.892718e+00 0.000000e+00 1.037381e+01
      endloop
   endfacet
   facet normal -0.000000e+00 -1.000000e+00 0.000000e+00
      outer loop
         vertex 4.071637e+00 0.000000e+00 8.298133e+00
         vertex 1.892718e+00 0.000000e+00 1.037381e+01
         vertex 3.701867e+00 0.000000e+00 7.928363e+00
      endloop
   endfacet
   facet normal 0.000000e+00 -1.000000e+00 0.000000e+00
      outer loop
         vertex 3.701867e+00 0.000000e+00 7.928363e+00
         vertex 1.892718e+00 0.000000e+00 1.037381e+01
         vertex 1.376920e+00 0.000000e+00 9.824544e+00
      endloop
   endfacet
   facet normal -0.000000e+00 -1.000000e+00 0.000000e+00
      outer loop
         vertex 3.701867e+00 0.000000e+00 7.928363e+00
         vertex 1.376920e+00 0.000000e+00 9.824544e+00
         vertex 3.401924e+00 0.000000e+00 7.500000e+00
      endloop
   endfacet
   facet normal 0.000000e+00 -1.000000e+00 0.000000e+00
      outer loop
         vertex 3.401924e+00 0.000000e+00 7.500000e+00
         vertex 1.376920e+00 0.000000e+00 9.824544e+00
         vertex 9.340327e-01 0.000000e+00 9.214961e+00
      endloop
   endfacet
   facet normal 0.000000e+00 -1.000000e+00 0.000000e+00
      outer loop
         vertex 3.401924e+00 0.000000e+00 7.500000e+00
         vertex 9.340327e-01 0.000000e+00 9.214961e+00
         vertex 5.710376e-01 0.000000e+00 8.554676e+00
      endloop
   endfacet
   facet normal 0.000000e+00 -1.000000e+00 0.000000e+00
      outer loop
         vertex 7.928363e+00 0.000000e+00 8.298133e+00
         vertex 9.526712e+00 0.000000e+00 1.085410e+01
         vertex 7.500000e+00 0.000000e+00 8.598076e+00
      endloop
   endfacet
   facet normal 0.000000e+00 -1.000000e+00 0.000000e+00
      outer loop
         vertex 7.500000e+00 0.000000e+00 8.598076e+00
         vertex 9.526712e+00 0.000000e+00 1.085410e+01
         vertex 8.890522e+00 0.000000e+00 1.125784e+01
      endloop
   endfacet
   facet normal 0.000000e+00 -1.000000e+00 0.000000e+00
      outer loop
         vertex 7.500000e+00 0.000000e+00 8.598076e+00
         vertex 8.890522e+00 0.000000e+00 1.125784e+01
         vertex 7.026060e+00 0.000000e+00 8.819078e+00
      endloop
   endfacet
   facet normal 0.000000e+00 -1.000000e+00 0.000000e+00
      outer loop
         vertex 8.819078e+00 0.000000e+00 7.026060e+00
         vertex 1.142896e+01 0.000000e+00 8.554676e+00
         vertex 8.598076e+00 0.000000e+00 7.500000e+00
      endloop
   endfacet
   facet normal 0.000000e+00 -1.000000e+00 0.000000e+00
      outer loop
         vertex 8.598076e+00 0.000000e+00 7.500000e+00
         vertex 1.142896e+01 0.000000e+00 8.554676e+00
         vertex 1.106597e+01 0.000000e+00 9.214961e+00
      endloop
   endfacet
   facet normal 0.000000e+00 -1.000000e+00 0.000000e+00
      outer loop
         vertex 8.598076e+00 0.000000e+00 7.500000e+00
         vertex 1.106597e+01 0.000000e+00 9.214961e+00
         vertex 8.298133e+00 0.000000e+00 7.928363e+00
      endloop
   endfacet
   facet normal 0.000000e+00 -1.000000e+00 0.000000e+00
      outer loop
         vertex 8.298133e+00 0.000000e+00 7.928363e+00
         vertex 1.106597e+01 0.000000e+00 9.214961e+00
         vertex 1.062308e+01 0.000000e+00 9.824544e+00
      endloop
   endfacet
   facet normal 0.000000e+00 -1.000000e+00 0.000000e+00
      outer loop
         vertex 8.298133e+00 0.000000e+00 7.928363e+00
         vertex 1.062308e+01 0.000000e+00 9.824544e+00
         vertex 7.928363e+00 0.000000e+00 8.298133e+00
      endloop
   endfacet
   facet normal 0.000000e+00 -1.000000e+00 0.000000e+00
      outer loop
         vertex 7.928363e+00 0.000000e+00 8.298133e+00
         vertex 1.062308e+01 0.000000e+00 9.824544e+00
         vertex 1.010728e+01 0.000000e+00 1.037381e+01
      endloop
   endfacet
   facet normal 0.000000e+00 -1.000000e+00 0.000000e+00
      outer loop
         vertex 7.928363e+00 0.000000e+00 8.298133e+00
         vertex 1.010728e+01 0.000000e+00 1.037381e+01
         vertex 9.526712e+00 0.000000e+00 1.085410e+01
      endloop
   endfacet
   facet normal 0.000000e+00 -1.000000e+00 0.000000e+00
      outer loop
         vertex 8.598076e+00 0.000000e+00 4.500000e+00
         vertex 1.142896e+01 0.000000e+00 3.445324e+00
         vertex 8.819078e+00 0.000000e+00 4.973940e+00
      endloop
   endfacet
   facet normal 0.000000e+00 -1.000000e+00 0.000000e+00
      outer loop
         vertex 8.819078e+00 0.000000e+00 4.973940e+00
         vertex 1.142896e+01 0.000000e+00 3.445324e+00
         vertex 1.170634e+01 0.000000e+00 4.145898e+00
      endloop
   endfacet
   facet normal 0.000000e+00 -1.000000e+00 0.000000e+00
      outer loop
         vertex 8.819078e+00 0.000000e+00 4.973940e+00
         vertex 1.170634e+01 0.000000e+00 4.145898e+00
         vertex 8.954423e+00 0.000000e+00 5.479056e+00
      endloop
   endfacet
   facet normal 0.000000e+00 -1.000000e+00 0.000000e+00
      outer loop
         vertex 8.954423e+00 0.000000e+00 5.479056e+00
         vertex 1.170634e+01 0.000000e+00 4.145898e+00
         vertex 1.189372e+01 0.000000e+00 4.875712e+00
      endloop
   endfacet
   facet normal 0.000000e+00 -1.000000e+00 0.000000e+00
      outer loop
         vertex 8.954423e+00 0.000000e+00 5.479056e+00
         vertex 1.189372e+01 0.000000e+00 4.875712e+00
         vertex 9.000000e+00 0.000000e+00 6.000000e+00
      endloop
   endfacet
   facet normal 0.000000e+00 -1.000000e+00 0.000000e+00
      outer loop
         vertex 7.500000e+00 0.000000e+00 3.401924e+00
         vertex 9.526712e+00 0.000000e+00 1.145898e+00
         vertex 7.928363e+00 0.000000e+00 3.701867e+00
      endloop
   endfacet
   facet normal 0.000000e+00 -1.000000e+00 0.000000e+00
      outer loop
         vertex 7.928363e+00 0.000000e+00 3.701867e+00
         vertex 9.526712e+00 0.000000e+00 1.145898e+00
         vertex 1.010728e+01 0.000000e+00 1.626188e+00
      endloop
   endfacet
   facet normal 0.000000e+00 -1.000000e+00 0.000000e+00
      outer loop
         vertex 7.928363e+00 0.000000e+00 3.701867e+00
         vertex 1.010728e+01 0.000000e+00 1.626188e+00
         vertex 8.298133e+00 0.000000e+00 4.071637e+00
      endloop
   endfacet
   facet normal 0.000000e+00 -1.000000e+00 0.000000e+00
      outer loop
         vertex 8.298133e+00 0.000000e+00 4.071637e+00
         vertex 1.010728e+01 0.000000e+00 1.626188e+00
         vertex 1.062308e+01 0.000000e+00 2.175456e+00
      endloop
   endfacet
   facet normal 0.000000e+00 -1.000000e+00 0.000000e+00
      outer loop
         vertex 8.298133e+00 0.000000e+00 4.071637e+00
         vertex 1.062308e+01 0.000000e+00 2.175456e+00
         vertex 8.598076e+00 0.000000e+00 4.500000e+00
      endloop
   endfacet
   facet normal 0.000000e+00 -1.000000e+00 0.000000e+00
      outer loop
         vertex 8.598076e+00 0.000000e+00 4.500000e+00
         vertex 1.062308e+01 0.000000e+00 2.175456e+00
         vertex 1.106597e+01 0.000000e+00 2.785039e+00
      endloop
   endfacet
   facet normal 0.000000e+00 -1.000000e+00 0.000000e+00
      outer loop
         vertex 8.598076e+00 0.000000e+00 4.500000e+00
         vertex 1.106597e+01 0.000000e+00 2.785039e+00
         vertex 1.142896e+01 0.000000e+00 3.445324e+00
      endloop
   endfacet
   facet normal 0.000000e+00 -1.000000e+00 0.000000e+00
      outer loop
         vertex 1.189372e+01 0.000000e+00 4.875712e+00
         vertex 1.198816e+01 0.000000e+00 5.623257e+00
         vertex 9.000000e+00 0.000000e+00 6.000000e+00
      endloop
   endfacet
   facet normal 0.000000e+00 -1.000000e+00 0.000000e+00
      outer loop
         vertex 9.000000e+00 0.000000e+00 6.000000e+00
         vertex 1.198816e+01 0.000000e+00 5.623257e+00
         vertex 1.198816e+01 0.000000e+00 6.376743e+00
      endloop
   endfacet
   facet normal 0.000000e+00 -1.000000e+00 0.000000e+00
      outer loop
         vertex 9.000000e+00 0.000000e+00 6.000000e+00
         vertex 1.198816e+01 0.000000e+00 6.376743e+00
         vertex 8.954423e+00 0.000000e+00 6.520945e+00
      endloop
   endfacet
   facet normal 0.000000e+00 -1.000000e+00 0.000000e+00
      outer loop
         vertex 8.954423e+00 0.000000e+00 6.520945e+00
         vertex 1.198816e+01 0.000000e+00 6.376743e+00
         vertex 1.189372e+01 0.000000e+00 7.124288e+00
      endloop
   endfacet
   facet normal 0.000000e+00 -1.000000e+00 0.000000e+00
      outer loop
         vertex 8.954423e+00 0.000000e+00 6.520945e+00
         vertex 1.189372e+01 0.000000e+00 7.124288e+00
         vertex 8.819078e+00 0.000000e+00 7.026060e+00
      endloop
   endfacet
   facet normal 0.000000e+00 -1.000000e+00 0.000000e+00
      outer loop
         vertex 8.819078e+00 0.000000e+00 7.026060e+00
         vertex 1.189372e+01 0.000000e+00 7.124288e+00
         vertex 1.170634e+01 0.000000e+00 7.854102e+00
      endloop
   endfacet
   facet normal 0.000000e+00 -1.000000e+00 0.000000e+00
      outer loop
         vertex 8.819078e+00 0.000000e+00 7.026060e+00
         vertex 1.170634e+01 0.000000e+00 7.854102e+00
         vertex 1.142896e+01 0.000000e+00 8.554676e+00
      endloop
   endfacet
   facet normal 0.000000e+00 -1.000000e+00 0.000000e+00
      outer loop
         vertex 6.000000e+00 0.000000e+00 0.000000e+00
         vertex 6.751999e+00 0.000000e+00 4.731165e-02
         vertex 6.520945e+00 0.000000e+00 3.045577e+00
      endloop
   endfacet
   facet normal 0.000000e+00 -1.000000e+00 0.000000e+00
      outer loop
         vertex 6.520945e+00 0.000000e+00 3.045577e+00
         vertex 6.751999e+00 0.000000e+00 4.731165e-02
         vertex 7.492139e+00 0.000000e+00 1.885011e-01
      endloop
   endfacet
   facet normal 0.000000e+00 -1.000000e+00 0.000000e+00
      outer loop
         vertex 6.520945e+00 0.000000e+00 3.045577e+00
         vertex 7.492139e+00 0.000000e+00 1.885011e-01
         vertex 7.026060e+00 0.000000e+00 3.180922e+00
      endloop
   endfacet
   facet normal 0.000000e+00 -1.000000e+00 0.000000e+00
      outer loop
         vertex 7.026060e+00 0.000000e+00 3.180922e+00
         vertex 7.492139e+00 0.000000e+00 1.885011e-01
         vertex 8.208747e+00 0.000000e+00 4.213410e-01
      endloop
   endfacet
   facet normal 0.000000e+00 -1.000000e+00 0.000000e+00
      outer loop
         vertex 7.026060e+00 0.000000e+00 3.180922e+00
         vertex 8.208747e+00 0.000000e+00 4.213410e-01
         vertex 7.500000e+00 0.000000e+00 3.401924e+00
      endloop
   endfacet
   facet normal 0.000000e+00 -1.000000e+00 0.000000e+00
      outer loop
         vertex 7.500000e+00 0.000000e+00 3.401924e+00
         vertex 8.208747e+00 0.000000e+00 4.213410e-01
         vertex 8.890522e+00 0.000000e+00 7.421598e-01
      endloop
   endfacet
   facet normal 0.000000e+00 -1.000000e+00 0.000000e+00
      outer loop
         vertex 7.500000e+00 0.000000e+00 3.401924e+00
         vertex 8.890522e+00 0.000000e+00 7.421598e-01
         vertex 9.526712e+00 0.000000e+00 1.145898e+00
      endloop
   endfacet
   facet normal -0.000000e+00 -1.000000e+00 0.000000e+00
      outer loop
         vertex 5.479056e+00 0.000000e+00 8.954423e+00
         vertex 4.507861e+00 0.000000e+00 1.181150e+01
         vertex 4.973940e+00 0.000000e+00 8.819078e+00
      endloop
   endfacet
   facet normal 0.000000e+00 -1.000000e+00 0.000000e+00
      outer loop
         vertex 4.973940e+00 0.000000e+00 8.819078e+00
         vertex 4.507861e+00 0.000000e+00 1.181150e+01
         vertex 3.791253e+00 0.000000e+00 1.157866e+01
      endloop
   endfacet
   facet normal -0.000000e+00 -1.000000e+00 0.000000e+00
      outer loop
         vertex 4.973940e+00 0.000000e+00 8.819078e+00
         vertex 3.791253e+00 0.000000e+00 1.157866e+01
         vertex 4.500000e+00 0.000000e+00 8.598076e+00
      endloop
   endfacet
   facet normal 0.000000e+00 -1.000000e+00 0.000000e+00
      outer loop
         vertex 4.500000e+00 0.000000e+00 8.598076e+00
         vertex 3.791253e+00 0.000000e+00 1.157866e+01
         vertex 3.109478e+00 0.000000e+00 1.125784e+01
      endloop
   endfacet
   facet normal 0.000000e+00 -1.000000e+00 0.000000e+00
      outer loop
         vertex 4.500000e+00 0.000000e+00 8.598076e+00
         vertex 3.109478e+00 0.000000e+00 1.125784e+01
         vertex 2.473288e+00 0.000000e+00 1.085410e+01
      endloop
   endfacet
   facet normal -0.000000e+00 -1.000000e+00 0.000000e+00
      outer loop
         vertex 8.890522e+00 0.000000e+00 1.125784e+01
         vertex 8.208747e+00 0.000000e+00 1.157866e+01
         vertex 7.026060e+00 0.000000e+00 8.819078e+00
      endloop
   endfacet
   facet normal 0.000000e+00 -1.000000e+00 0.000000e+00
      outer loop
         vertex 7.026060e+00 0.000000e+00 8.819078e+00
         vertex 8.208747e+00 0.000000e+00 1.157866e+01
         vertex 7.492139e+00 0.000000e+00 1.181150e+01
      endloop
   endfacet
   facet normal 0.000000e+00 -1.000000e+00 0.000000e+00
      outer loop
         vertex 7.026060e+00 0.000000e+00 8.819078e+00
         vertex 7.492139e+00 0.000000e+00 1.181150e+01
         vertex 6.520945e+00 0.000000e+00 8.954423e+00
      endloop
   endfacet
   facet normal 0.000000e+00 -1.000000e+00 0.000000e+00
      outer loop
         vertex 6.520945e+00 0.000000e+00 8.954423e+00
         vertex 7.492139e+00 0.000000e+00 1.181150e+01
         vertex 6.751999e+00 0.000000e+00 1.195269e+01
      endloop
   endfacet
   facet normal 0.000000e+00 -1.000000e+00 0.000000e+00
      outer loop
         vertex 6.520945e+00 0.000000e+00 8.954423e+00
         vertex 6.751999e+00 0.000000e+00 1.195269e+01
         vertex 6.000000e+00 0.000000e+00 9.000000e+00
      endloop
   endfacet
   facet normal 0.000000e+00 -1.000000e+00 0.000000e+00
      outer loop
         vertex 6.000000e+00 0.000000e+00 9.000000e+00
         vertex 6.751999e+00 0.000000e+00 1.195269e+01
         vertex 6.000000e+00 0.000000e+00 1.200000e+01
      endloop
   endfacet
   facet normal -0.000000e+00 -1.000000e+00 0.000000e+00
      outer loop
         vertex 6.000000e+00 0.000000e+00 9.000000e+00
         vertex 6.000000e+00 0.000000e+00 1.200000e+01
         vertex 5.479056e+00 0.000000e+00 8.954423e+00
      endloop
   endfacet
   facet normal 0.000000e+00 -1.000000e+00 0.000000e+00
      outer loop
         vertex 5.479056e+00 0.000000e+00 8.954423e+00
         vertex 6.000000e+00 0.000000e+00 1.200000e+01
         vertex 5.248001e+00 0.000000e+00 1.195269e+01
      endloop
   endfacet
   facet normal 0.000000e+00 -1.000000e+00 0.000000e+00
      outer loop
         vertex 5.479056e+00 0.000000e+00 8.954423e+00
         vertex 5.248001e+00 0.000000e+00 1.195269e+01
         vertex 4.507861e+00 0.000000e+00 1.181150e+01
      endloop
   endfacet
   facet normal 6.279034e-02 0.000000e+00 -9.980267e-01
      outer loop
         vertex 6.000000e+00 0.000000e+00 0.000000e+00
         vertex 6.751999e+00 1.900000e+01 4.731165e-02
         vertex 6.751999e+00 0.000000e+00 4.731165e-02
      endloop
   endfacet
   facet normal 1.873816e-01 0.000000e+00 -9.822872e-01
      outer loop
         vertex 6.751999e+00 0.000000e+00 4.731165e-02
         vertex 6.751999e+00 1.900000e+01 4.731165e-02
         vertex 7.492139e+00 1.900000e+01 1.885011e-01
      endloop
   endfacet
   facet normal 1.873816e-01 0.000000e+00 -9.822872e-01
      outer loop
         vertex 6.751999e+00 0.000000e+00 4.731165e-02
         vertex 7.492139e+00 1.900000e+01 1.885011e-01
         vertex 7.492139e+00 0.000000e+00 1.885011e-01
      endloop
   endfacet
   facet normal 3.090169e-01 0.000000e+00 -9.510565e-01
      outer loop
         vertex 7.492139e+00 0.000000e+00 1.885011e-01
         vertex 7.492139e+00 1.900000e+01 1.885011e-01
         vertex 8.208747e+00 1.900000e+01 4.213410e-01
      endloop
   endfacet
   facet normal 3.090169e-01 0.000000e+00 -9.510565e-01
      outer loop
         vertex 7.492139e+00 0.000000e+00 1.885011e-01
         vertex 8.208747e+00 1.900000e+01 4.213410e-01
         vertex 8.208747e+00 0.000000e+00 4.213410e-01
      endloop
   endfacet
   facet normal 4.257791e-01 0.000000e+00 -9.048271e-01
      outer loop
         vertex 8.208747e+00 0.000000e+00 4.213410e-01
         vertex 8.208747e+00 1.900000e+01 4.213410e-01
         vertex 8.890522e+00 1.900000e+01 7.421598e-01
      endloop
   endfacet
   facet normal 4.257791e-01 0.000000e+00 -9.048271e-01
      outer loop
         vertex 8.208747e+00 0.000000e+00 4.213410e-01
         vertex 8.890522e+00 1.900000e+01 7.421598e-01
         vertex 8.890522e+00 0.000000e+00 7.421598e-01
      endloop
   endfacet
   facet normal 5.358268e-01 0.000000e+00 -8.443279e-01
      outer loop
         vertex 8.890522e+00 0.000000e+00 7.421598e-01
         vertex 8.890522e+00 1.900000e+01 7.421598e-01
         vertex 9.526712e+00 1.900000e+01 1.145898e+00
      endloop
   endfacet
   facet normal 5.358268e-01 0.000000e+00 -8.443279e-01
      outer loop
         vertex 8.890522e+00 0.000000e+00 7.421598e-01
         vertex 9.526712e+00 1.900000e+01 1.145898e+00
         vertex 9.526712e+00 0.000000e+00 1.145898e+00
      endloop
   endfacet
   facet normal 6.374244e-01 0.000000e+00 -7.705129e-01
      outer loop
         vertex 9.526712e+00 0.000000e+00 1.145898e+00
         vertex 9.526712e+00 1.900000e+01 1.145898e+00
         vertex 1.010728e+01 1.900000e+01 1.626188e+00
      endloop
   endfacet
   facet normal 6.374244e-01 0.000000e+00 -7.705129e-01
      outer loop
         vertex 9.526712e+00 0.000000e+00 1.145898e+00
         vertex 1.010728e+01 1.900000e+01 1.626188e+00
         vertex 1.010728e+01 0.000000e+00 1.626188e+00
      endloop
   endfacet
   facet normal 7.289683e-01 0.000000e+00 -6.845474e-01
      outer loop
         vertex 1.010728e+01 0.000000e+00 1.626188e+00
         vertex 1.010728e+01 1.900000e+01 1.626188e+00
         vertex 1.062308e+01 1.900000e+01 2.175456e+00
      endloop
   endfacet
   facet normal 7.289683e-01 0.000000e+00 -6.845474e-01
      outer loop
         vertex 1.010728e+01 0.000000e+00 1.626188e+00
         vertex 1.062308e+01 1.900000e+01 2.175456e+00
         vertex 1.062308e+01 0.000000e+00 2.175456e+00
      endloop
   endfacet
   facet normal 8.090173e-01 0.000000e+00 -5.877848e-01
      outer loop
         vertex 1.062308e+01 0.000000e+00 2.175456e+00
         vertex 1.062308e+01 1.900000e+01 2.175456e+00
         vertex 1.106597e+01 1.900000e+01 2.785039e+00
      endloop
   endfacet
   facet normal 8.090173e-01 0.000000e+00 -5.877848e-01
      outer loop
         vertex 1.062308e+01 0.000000e+00 2.175456e+00
         vertex 1.106597e+01 1.900000e+01 2.785039e+00
         vertex 1.106597e+01 0.000000e+00 2.785039e+00
      endloop
   endfacet
   facet normal 8.763065e-01 0.000000e+00 -4.817541e-01
      outer loop
         vertex 1.106597e+01 0.000000e+00 2.785039e+00
         vertex 1.106597e+01 1.900000e+01 2.785039e+00
         vertex 1.142896e+01 1.900000e+01 3.445324e+00
      endloop
   endfacet
   facet normal 8.763065e-01 0.000000e+00 -4.817541e-01
      outer loop
         vertex 1.106597e+01 0.000000e+00 2.785039e+00
         vertex 1.142896e+01 1.900000e+01 3.445324e+00
         vertex 1.142896e+01 0.000000e+00 3.445324e+00
      endloop
   endfacet
   facet normal 9.297765e-01 0.000000e+00 -3.681245e-01
      outer loop
         vertex 1.142896e+01 0.000000e+00 3.445324e+00
         vertex 1.142896e+01 1.900000e+01 3.445324e+00
         vertex 1.170634e+01 1.900000e+01 4.145898e+00
      endloop
   endfacet
   facet normal 9.297765e-01 0.000000e+00 -3.681245e-01
      outer loop
         vertex 1.142896e+01 0.000000e+00 3.445324e+00
         vertex 1.170634e+01 1.900000e+01 4.145898e+00
         vertex 1.170634e+01 0.000000e+00 4.145898e+00
      endloop
   endfacet
   facet normal 9.685832e-01 0.000000e+00 -2.486899e-01
      outer loop
         vertex 1.170634e+01 0.000000e+00 4.145898e+00
         vertex 1.170634e+01 1.900000e+01 4.145898e+00
         vertex 1.189372e+01 1.900000e+01 4.875712e+00
      endloop
   endfacet
   facet normal 9.685832e-01 0.000000e+00 -2.486899e-01
      outer loop
         vertex 1.170634e+01 0.000000e+00 4.145898e+00
         vertex 1.189372e+01 1.900000e+01 4.875712e+00
         vertex 1.189372e+01 0.000000e+00 4.875712e+00
      endloop
   endfacet
   facet normal 9.921147e-01 0.000000e+00 -1.253329e-01
      outer loop
         vertex 1.189372e+01 0.000000e+00 4.875712e+00
         vertex 1.189372e+01 1.900000e+01 4.875712e+00
         vertex 1.198816e+01 1.900000e+01 5.623257e+00
      endloop
   endfacet
   facet normal 9.921147e-01 0.000000e+00 -1.253329e-01
      outer loop
         vertex 1.189372e+01 0.000000e+00 4.875712e+00
         vertex 1.198816e+01 1.900000e+01 5.623257e+00
         vertex 1.198816e+01 0.000000e+00 5.623257e+00
      endloop
   endfacet
   facet normal 1.000000e+00 0.000000e+00 0.000000e+00
      outer loop
         vertex 1.198816e+01 0.000000e+00 5.623257e+00
         vertex 1.198816e+01 1.900000e+01 5.623257e+00
         vertex 1.198816e+01 1.900000e+01 6.376743e+00
      endloop
   endfacet
   facet normal 1.000000e+00 0.000000e+00 0.000000e+00
      outer loop
         vertex 1.198816e+01 0.000000e+00 5.623257e+00
         vertex 1.198816e+01 1.900000e+01 6.376743e+00
         vertex 1.198816e+01 0.000000e+00 6.376743e+00
      endloop
   endfacet
   facet normal 9.921147e-01 -0.000000e+00 1.253329e-01
      outer loop
         vertex 1.198816e+01 0.000000e+00 6.376743e+00
         vertex 1.198816e+01 1.900000e+01 6.376743e+00
         vertex 1.189372e+01 1.900000e+01 7.124288e+00
      endloop
   endfacet
   facet normal 9.921147e-01 0.000000e+00 1.253329e-01
      outer loop
         vertex 1.198816e+01 0.000000e+00 6.376743e+00
         vertex 1.189372e+01 1.900000e+01 7.124288e+00
         vertex 1.189372e+01 0.000000e+00 7.124288e+00
      endloop
   endfacet
   facet normal 9.685832e-01 -0.000000e+00 2.486899e-01
      outer loop
         vertex 1.189372e+01 0.000000e+00 7.124288e+00
         vertex 1.189372e+01 1.900000e+01 7.124288e+00
         vertex 1.170634e+01 1.900000e+01 7.854102e+00
      endloop
   endfacet
   facet normal 9.685832e-01 0.000000e+00 2.486899e-01
      outer loop
         vertex 1.189372e+01 0.000000e+00 7.124288e+00
         vertex 1.170634e+01 1.900000e+01 7.854102e+00
         vertex 1.170634e+01 0.000000e+00 7.854102e+00
      endloop
   endfacet
   facet normal 9.297765e-01 -0.000000e+00 3.681245e-01
      outer loop
         vertex 1.170634e+01 0.000000e+00 7.854102e+00
         vertex 1.170634e+01 1.900000e+01 7.854102e+00
         vertex 1.142896e+01 1.900000e+01 8.554676e+00
      endloop
   endfacet
   facet normal 9.297765e-01 0.000000e+00 3.681245e-01
      outer loop
         vertex 1.170634e+01 0.000000e+00 7.854102e+00
         vertex 1.142896e+01 1.900000e+01 8.554676e+00
         vertex 1.142896e+01 0.000000e+00 8.554676e+00
      endloop
   endfacet
   facet normal 8.763065e-01 -0.000000e+00 4.817541e-01
      outer loop
         vertex 1.142896e+01 0.000000e+00 8.554676e+00
         vertex 1.142896e+01 1.900000e+01 8.554676e+00
         vertex 1.106597e+01 1.900000e+01 9.214961e+00
      endloop
   endfacet
   facet normal 8.763065e-01 0.000000e+00 4.817541e-01
      outer loop
         vertex 1.142896e+01 0.000000e+00 8.554676e+00
         vertex 1.106597e+01 1.900000e+01 9.214961e+00
         vertex 1.106597e+01 0.000000e+00 9.214961e+00
      endloop
   endfacet
   facet normal 8.090173e-01 -0.000000e+00 5.877848e-01
      outer loop
         vertex 1.106597e+01 0.000000e+00 9.214961e+00
         vertex 1.106597e+01 1.900000e+01 9.214961e+00
         vertex 1.062308e+01 1.900000e+01 9.824544e+00
      endloop
   endfacet
   facet normal 8.090173e-01 0.000000e+00 5.877848e-01
      outer loop
         vertex 1.106597e+01 0.000000e+00 9.214961e+00
         vertex 1.062308e+01 1.900000e+01 9.824544e+00
         vertex 1.062308e+01 0.000000e+00 9.824544e+00
      endloop
   endfacet
   facet normal 7.289683e-01 -0.000000e+00 6.845474e-01
      outer loop
         vertex 1.062308e+01 0.000000e+00 9.824544e+00
         vertex 1.062308e+01 1.900000e+01 9.824544e+00
         vertex 1.010728e+01 1.900000e+01 1.037381e+01
      endloop
   endfacet
   facet normal 7.289683e-01 0.000000e+00 6.845474e-01
      outer loop
         vertex 1.062308e+01 0.000000e+00 9.824544e+00
         vertex 1.010728e+01 1.900000e+01 1.037381e+01
         vertex 1.010728e+01 0.000000e+00 1.037381e+01
      endloop
   endfacet
   facet normal 6.374244e-01 -0.000000e+00 7.705129e-01
      outer loop
         vertex 1.010728e+01 0.000000e+00 1.037381e+01
         vertex 1.010728e+01 1.900000e+01 1.037381e+01
         vertex 9.526712e+00 1.900000e+01 1.085410e+01
      endloop
   endfacet
   facet normal 6.374244e-01 0.000000e+00 7.705129e-01
      outer loop
         vertex 1.010728e+01 0.000000e+00 1.037381e+01
         vertex 9.526712e+00 1.900000e+01 1.085410e+01
         vertex 9.526712e+00 0.000000e+00 1.085410e+01
      endloop
   endfacet
   facet normal 5.358268e-01 -0.000000e+00 8.443279e-01
      outer loop
         vertex 9.526712e+00 0.000000e+00 1.085410e+01
         vertex 9.526712e+00 1.900000e+01 1.085410e+01
         vertex 8.890522e+00 1.900000e+01 1.125784e+01
      endloop
   endfacet
   facet normal 5.358268e-01 0.000000e+00 8.443279e-01
      outer loop
         vertex 9.526712e+00 0.000000e+00 1.085410e+01
         vertex 8.890522e+00 1.900000e+01 1.125784e+01
         vertex 8.890522e+00 0.000000e+00 1.125784e+01
      endloop
   endfacet
   facet normal 4.257791e-01 -0.000000e+00 9.048271e-01
      outer loop
         vertex 8.890522e+00 0.000000e+00 1.125784e+01
         vertex 8.890522e+00 1.900000e+01 1.125784e+01
         vertex 8.208747e+00 1.900000e+01 1.157866e+01
      endloop
   endfacet
   facet normal 4.257791e-01 0.000000e+00 9.048271e-01
      outer loop
         vertex 8.890522e+00 0.000000e+00 1.125784e+01
         vertex 8.208747e+00 1.900000e+01 1.157866e+01
         vertex 8.208747e+00 0.000000e+00 1.157866e+01
      endloop
   endfacet
   facet normal 3.090169e-01 -0.000000e+00 9.510565e-01
      outer loop
         vertex 8.208747e+00 0.000000e+00 1.157866e+01
         vertex 8.208747e+00 1.900000e+01 1.157866e+01
         vertex 7.492139e+00 1.900000e+01 1.181150e+01
      endloop
   endfacet
   facet normal 3.090169e-01 0.000000e+00 9.510565e-01
      outer loop
         vertex 8.208747e+00 0.000000e+00 1.157866e+01
         vertex 7.492139e+00 1.900000e+01 1.181150e+01
         vertex 7.492139e+00 0.000000e+00 1.181150e+01
      endloop
   endfacet
   facet normal 1.873816e-01 -0.000000e+00 9.822872e-01
      outer loop
         vertex 7.492139e+00 0.000000e+00 1.181150e+01
         vertex 7.492139e+00 1.900000e+01 1.181150e+01
         vertex 6.751999e+00 1.900000e+01 1.195269e+01
      endloop
   endfacet
   facet normal 1.873816e-01 0.000000e+00 9.822872e-01
      outer loop
         vertex 7.492139e+00 0.000000e+00 1.181150e+01
         vertex 6.751999e+00 1.900000e+01 1.195269e+01
         vertex 6.751999e+00 0.000000e+00 1.195269e+01
      endloop
   endfacet
   facet normal 6.279034e-02 -0.000000e+00 9.980267e-01
      outer loop
         vertex 6.751999e+00 0.000000e+00 1.195269e+01
         vertex 6.751999e+00 1.900000e+01 1.195269e+01
         vertex 6.000000e+00 1.900000e+01 1.200000e+01
      endloop
   endfacet
   facet normal 6.279034e-02 0.000000e+00 9.980267e-01
      outer loop
         vertex 6.751999e+00 0.000000e+00 1.195269e+01
         vertex 6.000000e+00 1.900000e+01 1.200000e+01
         vertex 6.000000e+00 0.000000e+00 1.200000e+01
      endloop
   endfacet
   facet normal -6.279034e-02 0.000000e+00 9.980267e-01
      outer loop
         vertex 6.000000e+00 0.000000e+00 1.200000e+01
         vertex 6.000000e+00 1.900000e+01 1.200000e+01
         vertex 5.248001e+00 1.900000e+01 1.195269e+01
      endloop
   endfacet
   facet normal -6.279034e-02 0.000000e+00 9.980267e-01
      outer loop
         vertex 6.000000e+00 0.000000e+00 1.200000e+01
         vertex 5.248001e+00 1.900000e+01 1.195269e+01
         vertex 5.248001e+00 0.000000e+00 1.195269e+01
      endloop
   endfacet
   facet normal -1.873816e-01 0.000000e+00 9.822872e-01
      outer loop
         vertex 5.248001e+00 0.000000e+00 1.195269e+01
         vertex 5.248001e+00 1.900000e+01 1.195269e+01
         vertex 4.507861e+00 1.900000e+01 1.181150e+01
      endloop
   endfacet
   facet normal -1.873816e-01 0.000000e+00 9.822872e-01
      outer loop
         vertex 5.248001e+00 0.000000e+00 1.195269e+01
         vertex 4.507861e+00 1.900000e+01 1.181150e+01
         vertex 4.507861e+00 0.000000e+00 1.181150e+01
      endloop
   endfacet
   facet normal -3.090169e-01 0.000000e+00 9.510565e-01
      outer loop
         vertex 4.507861e+00 0.000000e+00 1.181150e+01
         vertex 4.507861e+00 1.900000e+01 1.181150e+01
         vertex 3.791253e+00 1.900000e+01 1.157866e+01
      endloop
   endfacet
   facet normal -3.090169e-01 0.000000e+00 9.510565e-01
      outer loop
         vertex 4.507861e+00 0.000000e+00 1.181150e+01
         vertex 3.791253e+00 1.900000e+01 1.157866e+01
         vertex 3.791253e+00 0.000000e+00 1.157866e+01
      endloop
   endfacet
   facet normal -4.257791e-01 0.000000e+00 9.048271e-01
      outer loop
         vertex 3.791253e+00 0.000000e+00 1.157866e+01
         vertex 3.791253e+00 1.900000e+01 1.157866e+01
         vertex 3.109478e+00 1.900000e+01 1.125784e+01
      endloop
   endfacet
   facet normal -4.257791e-01 0.000000e+00 9.048271e-01
      outer loop
         vertex 3.791253e+00 0.000000e+00 1.157866e+01
         vertex 3.109478e+00 1.900000e+01 1.125784e+01
         vertex 3.109478e+00 0.000000e+00 1.125784e+01
      endloop
   endfacet
   facet normal -5.358268e-01 0.000000e+00 8.443279e-01
      outer loop
         vertex 3.109478e+00 0.000000e+00 1.125784e+01
         vertex 3.109478e+00 1.900000e+01 1.125784e+01
         vertex 2.473288e+00 1.900000e+01 1.085410e+01
      endloop
   endfacet
   facet normal -5.358268e-01 0.000000e+00 8.443279e-01
      outer loop
         vertex 3.109478e+00 0.000000e+00 1.125784e+01
         vertex 2.473288e+00 1.900000e+01 1.085410e+01
         vertex 2.473288e+00 0.000000e+00 1.085410e+01
      endloop
   endfacet
   facet normal -6.374244e-01 0.000000e+00 7.705129e-01
      outer loop
         vertex 2.473288e+00 0.000000e+00 1.085410e+01
         vertex 2.473288e+00 1.900000e+01 1.085410e+01
         vertex 1.892718e+00 1.900000e+01 1.037381e+01
      endloop
   endfacet
   facet normal -6.374244e-01 0.000000e+00 7.705129e-01
      outer loop
         vertex 2.473288e+00 0.000000e+00 1.085410e+01
         vertex 1.892718e+00 1.900000e+01 1.037381e+01
         vertex 1.892718e+00 0.000000e+00 1.037381e+01
      endloop
   endfacet
   facet normal -7.289683e-01 0.000000e+00 6.845474e-01
      outer loop
         vertex 1.892718e+00 0.000000e+00 1.037381e+01
         vertex 1.892718e+00 1.900000e+01 1.037381e+01
         vertex 1.376920e+00 1.900000e+01 9.824544e+00
      endloop
   endfacet
   facet normal -7.289683e-01 0.000000e+00 6.845474e-01
      outer loop
         vertex 1.892718e+00 0.000000e+00 1.037381e+01
         vertex 1.376920e+00 1.900000e+01 9.824544e+00
         vertex 1.376920e+00 0.000000e+00 9.824544e+00
      endloop
   endfacet
   facet normal -8.090173e-01 0.000000e+00 5.877848e-01
      outer loop
         vertex 1.376920e+00 0.000000e+00 9.824544e+00
         vertex 1.376920e+00 1.900000e+01 9.824544e+00
         vertex 9.340327e-01 1.900000e+01 9.214961e+00
      endloop
   endfacet
   facet normal -8.090173e-01 0.000000e+00 5.877848e-01
      outer loop
         vertex 1.376920e+00 0.000000e+00 9.824544e+00
         vertex 9.340327e-01 1.900000e+01 9.214961e+00
         vertex 9.340327e-01 0.000000e+00 9.214961e+00
      endloop
   endfacet
   facet normal -8.763065e-01 0.000000e+00 4.817541e-01
      outer loop
         vertex 9.340327e-01 0.000000e+00 9.214961e+00
         vertex 9.340327e-01 1.900000e+01 9.214961e+00
         vertex 5.710376e-01 1.900000e+01 8.554676e+00
      endloop
   endfacet
   facet normal -8.763065e-01 0.000000e+00 4.817541e-01
      outer loop
         vertex 9.340327e-01 0.000000e+00 9.214961e+00
         vertex 5.710376e-01 1.900000e+01 8.554676e+00
         vertex 5.710376e-01 0.000000e+00 8.554676e+00
      endloop
   endfacet
   facet normal -9.297765e-01 0.000000e+00 3.681245e-01
      outer loop
         vertex 5.710376e-01 0.000000e+00 8.554676e+00
         vertex 5.710376e-01 1.900000e+01 8.554676e+00
         vertex 2.936609e-01 1.900000e+01 7.854102e+00
      endloop
   endfacet
   facet normal -9.297765e-01 0.000000e+00 3.681245e-01
      outer loop
         vertex 5.710376e-01 0.000000e+00 8.554676e+00
         vertex 2.936609e-01 1.900000e+01 7.854102e+00
         vertex 2.936609e-01 0.000000e+00 7.854102e+00
      endloop
   endfacet
   facet normal -9.685832e-01 0.000000e+00 2.486899e-01
      outer loop
         vertex 2.936609e-01 0.000000e+00 7.854102e+00
         vertex 2.936609e-01 1.900000e+01 7.854102e+00
         vertex 1.062765e-01 1.900000e+01 7.124288e+00
      endloop
   endfacet
   facet normal -9.685832e-01 0.000000e+00 2.486899e-01
      outer loop
         vertex 2.936609e-01 0.000000e+00 7.854102e+00
         vertex 1.062765e-01 1.900000e+01 7.124288e+00
         vertex 1.062765e-01 0.000000e+00 7.124288e+00
      endloop
   endfacet
   facet normal -9.921147e-01 0.000000e+00 1.253329e-01
      outer loop
         vertex 1.062765e-01 0.000000e+00 7.124288e+00
         vertex 1.062765e-01 1.900000e+01 7.124288e+00
         vertex 1.183990e-02 1.900000e+01 6.376743e+00
      endloop
   endfacet
   facet normal -9.921147e-01 0.000000e+00 1.253329e-01
      outer loop
         vertex 1.062765e-01 0.000000e+00 7.124288e+00
         vertex 1.183990e-02 1.900000e+01 6.376743e+00
         vertex 1.183990e-02 0.000000e+00 6.376743e+00
      endloop
   endfacet
   facet normal -1.000000e+00 0.000000e+00 0.000000e+00
      outer loop
         vertex 1.183990e-02 0.000000e+00 6.376743e+00
         vertex 1.183990e-02 1.900000e+01 6.376743e+00
         vertex 1.183990e-02 1.900000e+01 5.623257e+00
      endloop
   endfacet
   facet normal -1.000000e+00 0.000000e+00 0.000000e+00
      outer loop
         vertex 1.183990e-02 0.000000e+00 6.376743e+00
         vertex 1.183990e-02 1.900000e+01 5.623257e+00
         vertex 1.183990e-02 0.000000e+00 5.623257e+00
      endloop
   endfacet
   facet normal -9.921147e-01 0.000000e+00 -1.253329e-01
      outer loop
         vertex 1.183990e-02 0.000000e+00 5.623257e+00
         vertex 1.183990e-02 1.900000e+01 5.623257e+00
         vertex 1.062765e-01 1.900000e+01 4.875712e+00
      endloop
   endfacet
   facet normal -9.921147e-01 0.000000e+00 -1.253329e-01
      outer loop
         vertex 1.183990e-02 0.000000e+00 5.623257e+00
         vertex 1.062765e-01 1.900000e+01 4.875712e+00
         vertex 1.062765e-01 0.000000e+00 4.875712e+00
      endloop
   endfacet
   facet normal -9.685832e-01 0.000000e+00 -2.486899e-01
      outer loop
         vertex 1.062765e-01 0.000000e+00 4.875712e+00
         vertex 1.062765e-01 1.900000e+01 4.875712e+00
         vertex 2.936609e-01 1.900000e+01 4.145898e+00
      endloop
   endfacet
   facet normal -9.685832e-01 0.000000e+00 -2.486899e-01
      outer loop
         vertex 1.062765e-01 0.000000e+00 4.875712e+00
         vertex 2.936609e-01 1.900000e+01 4.145898e+00
         vertex 2.936609e-01 0.000000e+00 4.145898e+00
      endloop
   endfacet
   facet normal -9.297765e-01 0.000000e+00 -3.681245e-01
      outer loop
         vertex 2.936609e-01 0.000000e+00 4.145898e+00
         vertex 2.936609e-01 1.900000e+01 4.145898e+00
         vertex 5.710376e-01 1.900000e+01 3.445324e+00
      endloop
   endfacet
   facet normal -9.297765e-01 0.000000e+00 -3.681245e-01
      outer loop
         vertex 2.936609e-01 0.000000e+00 4.145898e+00
         vertex 5.710376e-01 1.900000e+01 3.445324e+00
         vertex 5.710376e-01 0.000000e+00 3.445324e+00
      endloop
   endfacet
   facet normal -8.763065e-01 0.000000e+00 -4.817541e-01
      outer loop
         vertex 5.710376e-01 0.000000e+00 3.445324e+00
         vertex 5.710376e-01 1.900000e+01 3.445324e+00
         vertex 9.340327e-01 1.900000e+01 2.785039e+00
      endloop
   endfacet
   facet normal -8.763065e-01 0.000000e+00 -4.817541e-01
      outer loop
         vertex 5.710376e-01 0.000000e+00 3.445324e+00
         vertex 9.340327e-01 1.900000e+01 2.785039e+00
         vertex 9.340327e-01 0.000000e+00 2.785039e+00
      endloop
   endfacet
   facet normal -8.090173e-01 0.000000e+00 -5.877848e-01
      outer loop
         vertex 9.340327e-01 0.000000e+00 2.785039e+00
         vertex 9.340327e-01 1.900000e+01 2.785039e+00
         vertex 1.376920e+00 1.900000e+01 2.175456e+00
      endloop
   endfacet
   facet normal -8.090173e-01 0.000000e+00 -5.877848e-01
      outer loop
         vertex 9.340327e-01 0.000000e+00 2.785039e+00
         vertex 1.376920e+00 1.900000e+01 2.175456e+00
         vertex 1.376920e+00 0.000000e+00 2.175456e+00
      endloop
   endfacet
   facet normal -7.289683e-01 0.000000e+00 -6.845474e-01
      outer loop
         vertex 1.376920e+00 0.000000e+00 2.175456e+00
         vertex 1.376920e+00 1.900000e+01 2.175456e+00
         vertex 1.892718e+00 1.900000e+01 1.626188e+00
      endloop
   endfacet
   facet normal -7.289683e-01 0.000000e+00 -6.845474e-01
      outer loop
         vertex 1.376920e+00 0.000000e+00 2.175456e+00
         vertex 1.892718e+00 1.900000e+01 1.626188e+00
         vertex 1.892718e+00 0.000000e+00 1.626188e+00
      endloop
   endfacet
   facet normal -6.374244e-01 0.000000e+00 -7.705129e-01
      outer loop
         vertex 1.892718e+00 0.000000e+00 1.626188e+00
         vertex 1.892718e+00 1.900000e+01 1.626188e+00
         vertex 2.473288e+00 1.900000e+01 1.145898e+00
      endloop
   endfacet
   facet normal -6.374244e-01 0.000000e+00 -7.705129e-01
      outer loop
         vertex 1.892718e+00 0.000000e+00 1.626188e+00
         vertex 2.473288e+00 1.900000e+01 1.145898e+00
         vertex 2.473288e+00 0.000000e+00 1.145898e+00
      endloop
   endfacet
   facet normal -5.358268e-01 0.000000e+00 -8.443279e-01
      outer loop
         vertex 2.473288e+00 0.000000e+00 1.145898e+00
         vertex 2.473288e+00 1.900000e+01 1.145898e+00
         vertex 3.109478e+00 1.900000e+01 7.421598e-01
      endloop
   endfacet
   facet normal -5.358268e-01 0.000000e+00 -8.443279e-01
      outer loop
         vertex 2.473288e+00 0.000000e+00 1.145898e+00
         vertex 3.109478e+00 1.900000e+01 7.421598e-01
         vertex 3.109478e+00 0.000000e+00 7.421598e-01
      endloop
   endfacet
   facet normal -4.257791e-01 0.000000e+00 -9.048271e-01
      outer loop
         vertex 3.109478e+00 0.000000e+00 7.421598e-01
         vertex 3.109478e+00 1.900000e+01 7.421598e-01
         vertex 3.791253e+00 1.900000e+01 4.213410e-01
      endloop
   endfacet
   facet normal -4.257791e-01 0.000000e+00 -9.048271e-01
      outer loop
         vertex 3.109478e+00 0.000000e+00 7.421598e-01
         vertex 3.791253e+00 1.900000e+01 4.213410e-01
         vertex 3.791253e+00 0.000000e+00 4.213410e-01
      endloop
   endfacet
   facet normal -3.090169e-01 0.000000e+00 -9.510565e-01
      outer loop
         vertex 3.791253e+00 0.000000e+00 4.213410e-01
         vertex 3.791253e+00 1.900000e+01 4.213410e-01
         vertex 4.507861e+00 1.900000e+01 1.885011e-01
      endloop
   endfacet
   facet normal -3.090169e-01 0.000000e+00 -9.510565e-01
      outer loop
         vertex 3.791253e+00 0.000000e+00 4.213410e-01
         vertex 4.507861e+00 1.900000e+01 1.885011e-01
         vertex 4.507861e+00 0.000000e+00 1.885011e-01
      endloop
   endfacet
   facet normal -1.873816e-01 0.000000e+00 -9.822872e-01
      outer loop
         vertex 4.507861e+00 0.000000e+00 1.885011e-01
         vertex 4.507861e+00 1.900000e+01 1.885011e-01
         vertex 5.248001e+00 1.900000e+01 4.731165e-02
      endloop
   endfacet
   facet normal -1.873816e-01 0.000000e+00 -9.822872e-01
      outer loop
         vertex 4.507861e+00 0.000000e+00 1.885011e-01
         vertex 5.248001e+00 1.900000e+01 4.731165e-02
         vertex 5.248001e+00 0.000000e+00 4.731165e-02
      endloop
   endfacet
   facet normal -6.279034e-02 0.000000e+00 -9.980267e-01
      outer loop
         vertex 5.248001e+00 0.000000e+00 4.731165e-02
         vertex 5.248001e+00 1.900000e+01 4.731165e-02
         vertex 6.000000e+00 1.900000e+01 0.000000e+00
      endloop
   endfacet
   facet normal -6.279034e-02 0.000000e+00 -9.980267e-01
      outer loop
         vertex 5.248001e+00 0.000000e+00 4.731165e-02
         vertex 6.000000e+00 1.900000e+01 0.000000e+00
         vertex 6.000000e+00 0.000000e+00 0.000000e+00
      endloop
   endfacet
   facet normal 6.279034e-02 0.000000e+00 -9.980267e-01
      outer loop
         vertex 6.000000e+00 0.000000e+00 0.000000e+00
         vertex 6.000000e+00 1.900000e+01 0.000000e+00
         vertex 6.751999e+00 1.900000e+01 4.731165e-02
      endloop
   endfacet
   facet normal -8.715591e-02 0.000000e+00 9.961947e-01
      outer loop
         vertex 6.000000e+00 1.900000e+01 3.000000e+00
         vertex 6.000000e+00 0.000000e+00 3.000000e+00
         vertex 6.520945e+00 1.900000e+01 3.045577e+00
      endloop
   endfacet
   facet normal -8.715591e-02 0.000000e+00 9.961947e-01
      outer loop
         vertex 6.520945e+00 1.900000e+01 3.045577e+00
         vertex 6.000000e+00 0.000000e+00 3.000000e+00
         vertex 6.520945e+00 0.000000e+00 3.045577e+00
      endloop
   endfacet
   facet normal -2.588190e-01 0.000000e+00 9.659258e-01
      outer loop
         vertex 6.520945e+00 1.900000e+01 3.045577e+00
         vertex 6.520945e+00 0.000000e+00 3.045577e+00
         vertex 7.026060e+00 1.900000e+01 3.180922e+00
      endloop
   endfacet
   facet normal -2.588190e-01 0.000000e+00 9.659258e-01
      outer loop
         vertex 7.026060e+00 1.900000e+01 3.180922e+00
         vertex 6.520945e+00 0.000000e+00 3.045577e+00
         vertex 7.026060e+00 0.000000e+00 3.180922e+00
      endloop
   endfacet
   facet normal -4.226183e-01 0.000000e+00 9.063078e-01
      outer loop
         vertex 7.026060e+00 1.900000e+01 3.180922e+00
         vertex 7.026060e+00 0.000000e+00 3.180922e+00
         vertex 7.500000e+00 1.900000e+01 3.401924e+00
      endloop
   endfacet
   facet normal -4.226183e-01 0.000000e+00 9.063078e-01
      outer loop
         vertex 7.500000e+00 1.900000e+01 3.401924e+00
         vertex 7.026060e+00 0.000000e+00 3.180922e+00
         vertex 7.500000e+00 0.000000e+00 3.401924e+00
      endloop
   endfacet
   facet normal -5.735764e-01 0.000000e+00 8.191520e-01
      outer loop
         vertex 7.500000e+00 1.900000e+01 3.401924e+00
         vertex 7.500000e+00 0.000000e+00 3.401924e+00
         vertex 7.928363e+00 1.900000e+01 3.701867e+00
      endloop
   endfacet
   facet normal -5.735764e-01 0.000000e+00 8.191520e-01
      outer loop
         vertex 7.928363e+00 1.900000e+01 3.701867e+00
         vertex 7.500000e+00 0.000000e+00 3.401924e+00
         vertex 7.928363e+00 0.000000e+00 3.701867e+00
      endloop
   endfacet
   facet normal -7.071068e-01 0.000000e+00 7.071068e-01
      outer loop
         vertex 7.928363e+00 1.900000e+01 3.701867e+00
         vertex 7.928363e+00 0.000000e+00 3.701867e+00
         vertex 8.298133e+00 1.900000e+01 4.071637e+00
      endloop
   endfacet
   facet normal -7.071068e-01 0.000000e+00 7.071068e-01
      outer loop
         vertex 8.298133e+00 1.900000e+01 4.071637e+00
         vertex 7.928363e+00 0.000000e+00 3.701867e+00
         vertex 8.298133e+00 0.000000e+00 4.071637e+00
      endloop
   endfacet
   facet normal -8.191520e-01 0.000000e+00 5.735764e-01
      outer loop
         vertex 8.298133e+00 1.900000e+01 4.071637e+00
         vertex 8.298133e+00 0.000000e+00 4.071637e+00
         vertex 8.598076e+00 1.900000e+01 4.500000e+00
      endloop
   endfacet
   facet normal -8.191520e-01 0.000000e+00 5.735764e-01
      outer loop
         vertex 8.598076e+00 1.900000e+01 4.500000e+00
         vertex 8.298133e+00 0.000000e+00 4.071637e+00
         vertex 8.598076e+00 0.000000e+00 4.500000e+00
      endloop
   endfacet
   facet normal -9.063078e-01 0.000000e+00 4.226183e-01
      outer loop
         vertex 8.598076e+00 1.900000e+01 4.500000e+00
         vertex 8.598076e+00 0.000000e+00 4.500000e+00
         vertex 8.819078e+00 1.900000e+01 4.973940e+00
      endloop
   endfacet
   facet normal -9.063078e-01 0.000000e+00 4.226183e-01
      outer loop
         vertex 8.819078e+00 1.900000e+01 4.973940e+00
         vertex 8.598076e+00 0.000000e+00 4.500000e+00
         vertex 8.819078e+00 0.000000e+00 4.973940e+00
      endloop
   endfacet
   facet normal -9.659258e-01 0.000000e+00 2.588190e-01
      outer loop
         vertex 8.819078e+00 1.900000e+01 4.973940e+00
         vertex 8.819078e+00 0.000000e+00 4.973940e+00
         vertex 8.954423e+00 1.900000e+01 5.479056e+00
      endloop
   endfacet
   facet normal -9.659258e-01 0.000000e+00 2.588190e-01
      outer loop
         vertex 8.954423e+00 1.900000e+01 5.479056e+00
         vertex 8.819078e+00 0.000000e+00 4.973940e+00
         vertex 8.954423e+00 0.000000e+00 5.479056e+00
      endloop
   endfacet
   facet normal -9.961947e-01 0.000000e+00 8.715591e-02
      outer loop
         vertex 8.954423e+00 1.900000e+01 5.479056e+00
         vertex 8.954423e+00 0.000000e+00 5.479056e+00
         vertex 9.000000e+00 1.900000e+01 6.000000e+00
      endloop
   endfacet
   facet normal -9.961947e-01 0.000000e+00 8.715591e-02
      outer loop
         vertex 9.000000e+00 1.900000e+01 6.000000e+00
         vertex 8.954423e+00 0.000000e+00 5.479056e+00
         vertex 9.000000e+00 0.000000e+00 6.000000e+00
      endloop
   endfacet
   facet normal -9.961947e-01 -0.000000e+00 -8.715591e-02
      outer loop
         vertex 9.000000e+00 1.900000e+01 6.000000e+00
         vertex 9.000000e+00 0.000000e+00 6.000000e+00
         vertex 8.954423e+00 1.900000e+01 6.520945e+00
      endloop
   endfacet
   facet normal -9.961947e-01 -0.000000e+00 -8.715591e-02
      outer loop
         vertex 8.954423e+00 1.900000e+01 6.520945e+00
         vertex 9.000000e+00 0.000000e+00 6.000000e+00
         vertex 8.954423e+00 0.000000e+00 6.520945e+00
      endloop
   endfacet
   facet normal -9.659258e-01 -0.000000e+00 -2.588190e-01
      outer loop
         vertex 8.954423e+00 1.900000e+01 6.520945e+00
         vertex 8.954423e+00 0.000000e+00 6.520945e+00
         vertex 8.819078e+00 1.900000e+01 7.026060e+00
      endloop
   endfacet
   facet normal -9.659258e-01 -0.000000e+00 -2.588190e-01
      outer loop
         vertex 8.819078e+00 1.900000e+01 7.026060e+00
         vertex 8.954423e+00 0.000000e+00 6.520945e+00
         vertex 8.819078e+00 0.000000e+00 7.026060e+00
      endloop
   endfacet
   facet normal -9.063078e-01 -0.000000e+00 -4.226183e-01
      outer loop
         vertex 8.819078e+00 1.900000e+01 7.026060e+00
         vertex 8.819078e+00 0.000000e+00 7.026060e+00
         vertex 8.598076e+00 1.900000e+01 7.500000e+00
      endloop
   endfacet
   facet normal -9.063078e-01 -0.000000e+00 -4.226183e-01
      outer loop
         vertex 8.598076e+00 1.900000e+01 7.500000e+00
         vertex 8.819078e+00 0.000000e+00 7.026060e+00
         vertex 8.598076e+00 0.000000e+00 7.500000e+00
      endloop
   endfacet
   facet normal -8.191520e-01 -0.000000e+00 -5.735764e-01
      outer loop
         vertex 8.598076e+00 1.900000e+01 7.500000e+00
         vertex 8.598076e+00 0.000000e+00 7.500000e+00
         vertex 8.298133e+00 1.900000e+01 7.928363e+00
      endloop
   endfacet
   facet normal -8.191520e-01 -0.000000e+00 -5.735764e-01
      outer loop
         vertex 8.298133e+00 1.900000e+01 7.928363e+00
         vertex 8.598076e+00 0.000000e+00 7.500000e+00
         vertex 8.298133e+00 0.000000e+00 7.928363e+00
      endloop
   endfacet
   facet normal -7.071068e-01 -0.000000e+00 -7.071068e-01
      outer loop
         vertex 8.298133e+00 1.900000e+01 7.928363e+00
         vertex 8.298133e+00 0.000000e+00 7.928363e+00
         vertex 7.928363e+00 1.900000e+01 8.298133e+00
      endloop
   endfacet
   facet normal -7.071068e-01 -0.000000e+00 -7.071068e-01
      outer loop
         vertex 7.928363e+00 1.900000e+01 8.298133e+00
         vertex 8.298133e+00 0.000000e+00 7.928363e+00
         vertex 7.928363e+00 0.000000e+00 8.298133e+00
      endloop
   endfacet
   facet normal -5.735764e-01 -0.000000e+00 -8.191520e-01
      outer loop
         vertex 7.928363e+00 1.900000e+01 8.298133e+00
         vertex 7.928363e+00 0.000000e+00 8.298133e+00
         vertex 7.500000e+00 1.900000e+01 8.598076e+00
      endloop
   endfacet
   facet normal -5.735764e-01 -0.000000e+00 -8.191520e-01
      outer loop
         vertex 7.500000e+00 1.900000e+01 8.598076e+00
         vertex 7.928363e+00 0.000000e+00 8.298133e+00
         vertex 7.500000e+00 0.000000e+00 8.598076e+00
      endloop
   endfacet
   facet normal -4.226183e-01 -0.000000e+00 -9.063078e-01
      outer loop
         vertex 7.500000e+00 1.900000e+01 8.598076e+00
         vertex 7.500000e+00 0.000000e+00 8.598076e+00
         vertex 7.026060e+00 1.900000e+01 8.819078e+00
      endloop
   endfacet
   facet normal -4.226183e-01 -0.000000e+00 -9.063078e-01
      outer loop
         vertex 7.026060e+00 1.900000e+01 8.819078e+00
         vertex 7.500000e+00 0.000000e+00 8.598076e+00
         vertex 7.026060e+00 0.000000e+00 8.819078e+00
      endloop
   endfacet
   facet normal -2.588190e-01 -0.000000e+00 -9.659258e-01
      outer loop
         vertex 7.026060e+00 1.900000e+01 8.819078e+00
         vertex 7.026060e+00 0.000000e+00 8.819078e+00
         vertex 6.520945e+00 1.900000e+01 8.954423e+00
      endloop
   endfacet
   facet normal -2.588190e-01 -0.000000e+00 -9.659258e-01
      outer loop
         vertex 6.520945e+00 1.900000e+01 8.954423e+00
         vertex 7.026060e+00 0.000000e+00 8.819078e+00
         vertex 6.520945e+00 0.000000e+00 8.954423e+00
      endloop
   endfacet
   facet normal -8.715591e-02 -0.000000e+00 -9.961947e-01
      outer loop
         vertex 6.520945e+00 1.900000e+01 8.954423e+00
         vertex 6.520945e+00 0.000000e+00 8.954423e+00
         vertex 6.000000e+00 1.900000e+01 9.000000e+00
      endloop
   endfacet
   facet normal -8.715591e-02 -0.000000e+00 -9.961947e-01
      outer loop
         vertex 6.000000e+00 1.900000e+01 9.000000e+00
         vertex 6.520945e+00 0.000000e+00 8.954423e+00
         vertex 6.000000e+00 0.000000e+00 9.000000e+00
      endloop
   endfacet
   facet normal 8.715591e-02 0.000000e+00 -9.961947e-01
      outer loop
         vertex 6.000000e+00 1.900000e+01 9.000000e+00
         vertex 6.000000e+00 0.000000e+00 9.000000e+00
         vertex 5.479056e+00 1.900000e+01 8.954423e+00
      endloop
   endfacet
   facet normal 8.715591e-02 0.000000e+00 -9.961947e-01
      outer loop
         vertex 5.479056e+00 1.900000e+01 8.954423e+00
         vertex 6.000000e+00 0.000000e+00 9.000000e+00
         vertex 5.479056e+00 0.000000e+00 8.954423e+00
      endloop
   endfacet
   facet normal 2.588190e-01 0.000000e+00 -9.659258e-01
      outer loop
         vertex 5.479056e+00 1.900000e+01 8.954423e+00
         vertex 5.479056e+00 0.000000e+00 8.954423e+00
         vertex 4.973940e+00 1.900000e+01 8.819078e+00
      endloop
   endfacet
   facet normal 2.588190e-01 0.000000e+00 -9.659258e-01
      outer loop
         vertex 4.973940e+00 1.900000e+01 8.819078e+00
         vertex 5.479056e+00 0.000000e+00 8.954423e+00
         vertex 4.973940e+00 0.000000e+00 8.819078e+00
      endloop
   endfacet
   facet normal 4.226183e-01 0.000000e+00 -9.063078e-01
      outer loop
         vertex 4.973940e+00 1.900000e+01 8.819078e+00
         vertex 4.973940e+00 0.000000e+00 8.819078e+00
         vertex 4.500000e+00 1.900000e+01 8.598076e+00
      endloop
   endfacet
   facet normal 4.226183e-01 0.000000e+00 -9.063078e-01
      outer loop
         vertex 4.500000e+00 1.900000e+01 8.598076e+00
         vertex 4.973940e+00 0.000000e+00 8.819078e+00
         vertex 4.500000e+00 0.000000e+00 8.598076e+00
      endloop
   endfacet
   facet normal 5.735764e-01 0.000000e+00 -8.191520e-01
      outer loop
         vertex 4.500000e+00 1.900000e+01 8.598076e+00
         vertex 4.500000e+00 0.000000e+00 8.598076e+00
         vertex 4.071637e+00 1.900000e+01 8.298133e+00
      endloop
   endfacet
   facet normal 5.735764e-01 0.000000e+00 -8.191520e-01
      outer loop
         vertex 4.071637e+00 1.900000e+01 8.298133e+00
         vertex 4.500000e+00 0.000000e+00 8.598076e+00
         vertex 4.071637e+00 0.000000e+00 8.298133e+00
      endloop
   endfacet
   facet normal 7.071068e-01 0.000000e+00 -7.071068e-01
      outer loop
         vertex 4.071637e+00 1.900000e+01 8.298133e+00
         vertex 4.071637e+00 0.000000e+00 8.298133e+00
         vertex 3.701867e+00 1.900000e+01 7.928363e+00
      endloop
   endfacet
   facet normal 7.071068e-01 0.000000e+00 -7.071068e-01
      outer loop
         vertex 3.701867e+00 1.900000e+01 7.928363e+00
         vertex 4.071637e+00 0.000000e+00 8.298133e+00
         vertex 3.701867e+00 0.000000e+00 7.928363e+00
      endloop
   endfacet
   facet normal 8.191520e-01 0.000000e+00 -5.735764e-01
      outer loop
         vertex 3.701867e+00 1.900000e+01 7.928363e+00
         vertex 3.701867e+00 0.000000e+00 7.928363e+00
         vertex 3.401924e+00 1.900000e+01 7.500000e+00
      endloop
   endfacet
   facet normal 8.191520e-01 0.000000e+00 -5.735764e-01
      outer loop
         vertex 3.401924e+00 1.900000e+01 7.500000e+00
         vertex 3.701867e+00 0.000000e+00 7.928363e+00
         vertex 3.401924e+00 0.000000e+00 7.500000e+00
      endloop
   endfacet
   facet normal 9.063078e-01 0.000000e+00 -4.226183e-01
      outer loop
         vertex 3.401924e+00 1.900000e+01 7.500000e+00
         vertex 3.401924e+00 0.000000e+00 7.500000e+00
         vertex 3.180922e+00 1.900000e+01 7.026060e+00
      endloop
   endfacet
   facet normal 9.063078e-01 0.000000e+00 -4.226183e-01
      outer loop
         vertex 3.180922e+00 1.900000e+01 7.026060e+00
         vertex 3.401924e+00 0.000000e+00 7.500000e+00
         vertex 3.180922e+00 0.000000e+00 7.026060e+00
      endloop
   endfacet
   facet normal 9.659258e-01 0.000000e+00 -2.588190e-01
      outer loop
         vertex 3.180922e+00 1.900000e+01 7.026060e+00
         vertex 3.180922e+00 0.000000e+00 7.026060e+00
         vertex 3.045577e+00 1.900000e+01 6.520945e+00
      endloop
   endfacet
   facet normal 9.659258e-01 0.000000e+00 -2.588190e-01
      outer loop
         vertex 3.045577e+00 1.900000e+01 6.520945e+00
         vertex 3.180922e+00 0.000000e+00 7.026060e+00
         vertex 3.045577e+00 0.000000e+00 6.520945e+00
      endloop
   endfacet
   facet normal 9.961947e-01 0.000000e+00 -8.715591e-02
      outer loop
         vertex 3.045577e+00 1.900000e+01 6.520945e+00
         vertex 3.045577e+00 0.000000e+00 6.520945e+00
         vertex 3.000000e+00 1.900000e+01 6.000000e+00
      endloop
   endfacet
   facet normal 9.961947e-01 0.000000e+00 -8.715591e-02
      outer loop
         vertex 3.000000e+00 1.900000e+01 6.000000e+00
         vertex 3.045577e+00 0.000000e+00 6.520945e+00
         vertex 3.000000e+00 0.000000e+00 6.000000e+00
      endloop
   endfacet
   facet normal 9.961947e-01 0.000000e+00 8.715591e-02
      outer loop
         vertex 3.000000e+00 1.900000e+01 6.000000e+00
         vertex 3.000000e+00 0.000000e+00 6.000000e+00
         vertex 3.045577e+00 1.900000e+01 5.479056e+00
      endloop
   endfacet
   facet normal 9.961947e-01 0.000000e+00 8.715591e-02
      outer loop
         vertex 3.045577e+00 1.900000e+01 5.479056e+00
         vertex 3.000000e+00 0.000000e+00 6.000000e+00
         vertex 3.045577e+00 0.000000e+00 5.479056e+00
      endloop
   endfacet
   facet normal 9.659258e-01 0.000000e+00 2.588190e-01
      outer loop
         vertex 3.045577e+00 1.900000e+01 5.479056e+00
         vertex 3.045577e+00 0.000000e+00 5.479056e+00
         vertex 3.180922e+00 1.900000e+01 4.973940e+00
      endloop
   endfacet
   facet normal 9.659258e-01 0.000000e+00 2.588190e-01
      outer loop
         vertex 3.180922e+00 1.900000e+01 4.973940e+00
         vertex 3.045577e+00 0.000000e+00 5.479056e+00
         vertex 3.180922e+00 0.000000e+00 4.973940e+00
      endloop
   endfacet
   facet normal 9.063078e-01 0.000000e+00 4.226183e-01
      outer loop
         vertex 3.180922e+00 1.900000e+01 4.973940e+00
         vertex 3.180922e+00 0.000000e+00 4.973940e+00
         vertex 3.401924e+00 1.900000e+01 4.500000e+00
      endloop
   endfacet
   facet normal 9.063078e-01 0.000000e+00 4.226183e-01
      outer loop
         vertex 3.401924e+00 1.900000e+01 4.500000e+00
         vertex 3.180922e+00 0.000000e+00 4.973940e+00
         vertex 3.401924e+00 0.000000e+00 4.500000e+00
      endloop
   endfacet
   facet normal 8.191520e-01 0.000000e+00 5.735764e-01
      outer loop
         vertex 3.401924e+00 1.900000e+01 4.500000e+00
         vertex 3.401924e+00 0.000000e+00 4.500000e+00
         vertex 3.701867e+00 1.900000e+01 4.071637e+00
      endloop
   endfacet
   facet normal 8.191520e-01 0.000000e+00 5.735764e-01
      outer loop
         vertex 3.701867e+00 1.900000e+01 4.071637e+00
         vertex 3.401924e+00 0.000000e+00 4.500000e+00
         vertex 3.701867e+00 0.000000e+00 4.071637e+00
      endloop
   endfacet
   facet normal 7.071068e-01 0.000000e+00 7.071068e-01
      outer loop
         vertex 3.701867e+00 1.900000e+01 4.071637e+00
         vertex 3.701867e+00 0.000000e+00 4.071637e+00
         vertex 4.071637e+00 1.900000e+01 3.701867e+00
      endloop
   endfacet
   facet normal 7.071068e-01 0.000000e+00 7.071068e-01
      outer loop
         vertex 4.071637e+00 1.900000e+01 3.701867e+00
         vertex 3.701867e+00 0.000000e+00 4.071637e+00
         vertex 4.071637e+00 0.000000e+00 3.701867e+00
      endloop
   endfacet
   facet normal 5.735764e-01 0.000000e+00 8.191520e-01
      outer loop
         vertex 4.071637e+00 1.900000e+01 3.701867e+00
         vertex 4.071637e+00 0.000000e+00 3.701867e+00
         vertex 4.500000e+00 1.900000e+01 3.401924e+00
      endloop
   endfacet
   facet normal 5.735764e-01 0.000000e+00 8.191520e-01
      outer loop
         vertex 4.500000e+00 1.900000e+01 3.401924e+00
         vertex 4.071637e+00 0.000000e+00 3.701867e+00
         vertex 4.500000e+00 0.000000e+00 3.401924e+00
      endloop
   endfacet
   facet normal 4.226183e-01 0.000000e+00 9.063078e-01
      outer loop
         vertex 4.500000e+00 1.900000e+01 3.401924e+00
         vertex 4.500000e+00 0.000000e+00 3.401924e+00
         vertex 4.973940e+00 1.900000e+01 3.180922e+00
      endloop
   endfacet
   facet normal 4.226183e-01 0.000000e+00 9.063078e-01
      outer loop
         vertex 4.973940e+00 1.900000e+01 3.180922e+00
         vertex 4.500000e+00 0.000000e+00 3.401924e+00
         vertex 4.973940e+00 0.000000e+00 3.180922e+00
      endloop
   endfacet
   facet normal 2.588190e-01 0.000000e+00 9.659258e-01
      outer loop
         vertex 4.973940e+00 1.900000e+01 3.180922e+00
         vertex 4.973940e+00 0.000000e+00 3.180922e+00
         vertex 5.479056e+00 1.900000e+01 3.045577e+00
      endloop
   endfacet
   facet normal 2.588190e-01 0.000000e+00 9.659258e-01
      outer loop
         vertex 5.479056e+00 1.900000e+01 3.045577e+00
         vertex 4.973940e+00 0.000000e+00 3.180922e+00
         vertex 5.479056e+00 0.000000e+00 3.045577e+00
      endloop
   endfacet
   facet normal 8.715591e-02 0.000000e+00 9.961947e-01
      outer loop
         vertex 5.479056e+00 1.900000e+01 3.045577e+00
         vertex 5.479056e+00 0.000000e+00 3.045577e+00
         vertex 6.000000e+00 1.900000e+01 3.000000e+00
      endloop
   endfacet
   facet normal 8.715591e-02 0.000000e+00 9.961947e-01
      outer loop
         vertex 6.000000e+00 1.900000e+01 3.000000e+00
         vertex 5.479056e+00 0.000000e+00 3.045577e+00
         vertex 6.000000e+00 0.000000e+00 3.000000e+00
      endloop
   endfacet
endsolid Tripod_insert_12_6_telescope_ascii